<?xml version="1.0" encoding="UTF-8"?>
<svg id="Layer_2" data-name="Layer 2" xmlns="http://www.w3.org/2000/svg" xmlns:xlink="http://www.w3.org/1999/xlink" viewBox="0 0 178.3 63">
  <defs>
    <style>
      .cls-1 {
        fill: #96999c;
      }

      .cls-2 {
        fill: none;
      }

      .cls-3 {
        clip-path: url(#clippath);
      }
    </style>
    <clipPath id="clippath">
      <rect class="cls-2" width="178.3" height="63"/>
    </clipPath>
  </defs>
  <g id="Layer_1-2" data-name="Layer 1">
    <g id="Group_15" data-name="Group 15">
      <path id="Path_17" data-name="Path 17" class="cls-1" d="M73.58,24.09l4.2-10.55h1.56l4.21,10.55h-1.8l-1.04-2.75h-4.28l-1.04,2.75h-1.8ZM76.99,19.87h3.14l-1.58-4.08-1.57,4.08Z"/>
      <g id="Group_14" data-name="Group 14">
        <g class="cls-3">
          <g id="Group_13" data-name="Group 13">
            <path id="Path_18" data-name="Path 18" class="cls-1" d="M89.14,24.3c-.47,0-.93-.06-1.38-.19-.38-.12-.75-.27-1.09-.48-.28-.17-.54-.36-.79-.58-.17-.15-.33-.31-.49-.47l.88-1.35c.12.12.27.27.45.44.2.19.41.35.64.5.25.17.53.31.82.41.32.11.66.17,1,.16.32,0,.63-.05.92-.17.26-.11.49-.28.65-.51.17-.25.26-.55.24-.85,0-.26-.05-.52-.18-.75-.13-.22-.31-.4-.52-.55-.26-.17-.53-.32-.81-.45-.31-.14-.66-.29-1.04-.45-.28-.12-.55-.25-.81-.4-.26-.15-.5-.34-.72-.55-.21-.21-.39-.46-.51-.73-.13-.31-.2-.64-.19-.97,0-.39.08-.78.23-1.13.16-.36.38-.69.66-.96.29-.28.64-.51,1.02-.66.42-.16.87-.25,1.32-.24.39,0,.78.06,1.16.17.36.11.7.26,1.03.45.28.16.54.36.76.59l-.73,1.27c-.17-.18-.37-.33-.58-.47-.23-.15-.48-.27-.75-.35-.27-.09-.56-.14-.85-.13-.31,0-.61.06-.89.2-.23.13-.42.31-.56.54-.13.21-.2.46-.19.71,0,.2.04.39.14.57.09.16.22.3.38.4.18.12.36.22.56.31.21.09.44.18.67.27.46.19.89.38,1.29.58.37.18.71.4,1.03.66.28.24.51.54.67.87.17.38.25.79.24,1.21.05,1.2-.66,2.29-1.76,2.75-.6.25-1.25.38-1.91.37"/>
            <path id="Path_19" data-name="Path 19" class="cls-1" d="M101.03,24.29c-.71,0-1.42-.14-2.07-.42-.64-.28-1.21-.67-1.69-1.18-.49-.5-.88-1.09-1.14-1.74-.55-1.37-.55-2.9,0-4.27.27-.65.65-1.24,1.14-1.74.48-.5,1.06-.9,1.69-1.17,1.32-.56,2.82-.56,4.14,0,.64.28,1.21.67,1.7,1.17.49.5.87,1.09,1.14,1.74.85,2.05.4,4.41-1.14,6.01-.48.5-1.06.9-1.7,1.17-.65.28-1.36.43-2.07.42M101.03,22.68c.96.01,1.88-.39,2.52-1.1.32-.36.58-.77.74-1.22.35-.99.35-2.08,0-3.07-.16-.45-.42-.87-.74-1.22-.31-.34-.69-.62-1.12-.81-.89-.39-1.9-.39-2.79,0-.42.19-.8.47-1.12.81-.32.36-.57.77-.74,1.22-.35,1-.35,2.08,0,3.07.16.45.41.87.74,1.22.31.34.69.62,1.12.81.44.2.91.29,1.39.29"/>
            <path id="Path_20" data-name="Path 20" class="cls-1" d="M114.69,24.3c-.76,0-1.52-.14-2.23-.42-.68-.27-1.29-.66-1.82-1.16-.52-.49-.94-1.09-1.23-1.74-.59-1.37-.59-2.92,0-4.29.29-.65.71-1.25,1.22-1.75.52-.5,1.14-.9,1.81-1.16.71-.28,1.46-.43,2.22-.42.63,0,1.25.09,1.85.28.54.17,1.05.42,1.52.75l-.74,1.42c-.34-.27-.73-.47-1.14-.59-.45-.14-.92-.21-1.39-.21-.54,0-1.08.09-1.59.3-.47.19-.9.46-1.27.82-.36.34-.64.76-.83,1.22-.39.96-.39,2.04,0,3,.2.46.49.87.85,1.21.37.36.8.63,1.27.82.51.2,1.05.3,1.59.29.47,0,.94-.07,1.39-.21.41-.13.8-.33,1.14-.59l.74,1.42c-.46.32-.96.58-1.49.74-.6.2-1.23.29-1.87.29"/>
            <rect id="Rectangle_28" data-name="Rectangle 28" class="cls-1" x="121.23" y="13.54" width="1.67" height="10.55"/>
            <path id="Path_21" data-name="Path 21" class="cls-1" d="M126.06,24.09l4.2-10.55h1.56l4.21,10.55h-1.8l-1.04-2.75h-4.28l-1.04,2.75h-1.8ZM129.46,19.87h3.15l-1.58-4.08-1.57,4.08Z"/>
            <path id="Path_22" data-name="Path 22" class="cls-1" d="M143.87,24.3c-.76,0-1.52-.14-2.23-.42-.68-.27-1.29-.66-1.82-1.16-.52-.5-.94-1.09-1.23-1.74-.29-.68-.45-1.41-.44-2.15,0-.74.15-1.47.45-2.14.29-.66.71-1.25,1.22-1.75.52-.5,1.14-.89,1.81-1.16.71-.28,1.46-.42,2.22-.42.63,0,1.25.09,1.85.28.54.17,1.05.42,1.51.75l-.73,1.42c-.34-.27-.73-.47-1.14-.6-.45-.14-.92-.21-1.39-.21-.54,0-1.08.09-1.59.29-.47.19-.91.46-1.27.82-.36.35-.64.76-.83,1.22-.39.96-.39,2.04,0,3,.19.46.48.87.83,1.22.37.35.8.63,1.27.81.51.2,1.05.3,1.59.29.47,0,.94-.07,1.39-.21.41-.13.8-.33,1.14-.59l.73,1.42c-.45.33-.96.58-1.49.74-.6.2-1.23.29-1.86.29"/>
            <rect id="Rectangle_29" data-name="Rectangle 29" class="cls-1" x="150.41" y="13.54" width="1.68" height="10.55"/>
            <path id="Path_23" data-name="Path 23" class="cls-1" d="M161.04,24.3c-.72,0-1.42-.14-2.07-.42-.64-.28-1.21-.68-1.69-1.17-2.09-2.16-2.09-5.59,0-7.76.48-.5,1.06-.9,1.69-1.17,1.33-.56,2.82-.56,4.15,0,.64.28,1.21.68,1.69,1.17,2.08,2.17,2.08,5.59,0,7.76-.48.5-1.06.9-1.69,1.17-.65.29-1.36.43-2.07.42M161.04,22.68c.96.01,1.87-.39,2.52-1.1.32-.36.58-.77.74-1.22.35-.99.35-2.08,0-3.07-.17-.45-.42-.87-.74-1.22-.64-.71-1.56-1.11-2.52-1.1-.48,0-.95.1-1.39.29-.42.19-.81.46-1.12.81-.32.36-.57.77-.74,1.22-.35.99-.35,2.08,0,3.07.17.45.42.87.74,1.22.31.34.7.62,1.12.81.44.2.91.29,1.39.29M160.81,12.78l-.7-.55,1.57-2.69,1.11.83-1.98,2.41Z"/>
            <path id="Path_24" data-name="Path 24" class="cls-1" d="M170,24.09v-10.55h1.67l4.95,7.75v-7.75h1.67v10.55h-1.67l-4.95-7.74v7.74h-1.67Z"/>
            <path id="Path_25" data-name="Path 25" class="cls-1" d="M79.49,41.38c-.76,0-1.52-.14-2.23-.42-.67-.27-1.29-.66-1.82-1.16-.52-.5-.94-1.09-1.22-1.74-.59-1.37-.59-2.92,0-4.29.29-.66.7-1.25,1.22-1.74.52-.5,1.14-.9,1.81-1.17.71-.28,1.46-.42,2.22-.42.63,0,1.25.09,1.85.28.54.17,1.05.42,1.52.75l-.74,1.42c-.34-.27-.72-.47-1.13-.6-.45-.14-.92-.21-1.39-.21-.54,0-1.09.09-1.59.29-.47.19-.91.46-1.27.82-.36.34-.64.76-.83,1.22-.39.96-.39,2.04,0,3,.19.46.47.88.83,1.22.37.35.8.63,1.27.82.51.2,1.05.3,1.59.29.47,0,.94-.07,1.39-.21.41-.13.8-.33,1.14-.59l.74,1.42c-.46.33-.96.58-1.5.74-.6.2-1.23.29-1.86.29"/>
            <path id="Path_26" data-name="Path 26" class="cls-1" d="M86.03,41.18v-10.55h3.28c.64-.01,1.27.11,1.85.37.5.23.92.6,1.21,1.07.3.51.44,1.09.43,1.67,0,.5-.1,1-.3,1.45-.2.42-.5.79-.87,1.07-.4.29-.87.49-1.36.59l3.47,4.33h-2.12l-3.16-4.14h-.75v4.14h-1.67ZM87.7,35.63h1.12c.41,0,.82-.07,1.2-.22.31-.13.58-.35.76-.63.18-.3.27-.64.26-.99.03-.51-.19-1.01-.59-1.34-.47-.34-1.05-.51-1.64-.48h-1.12v3.66Z"/>
            <path id="Path_27" data-name="Path 27" class="cls-1" d="M101.29,41.38c-.71,0-1.42-.14-2.07-.42-.64-.28-1.21-.68-1.69-1.17-2.09-2.16-2.09-5.59,0-7.76.48-.5,1.06-.9,1.69-1.17,1.32-.56,2.82-.56,4.14,0,.64.27,1.21.67,1.69,1.17,2.08,2.17,2.08,5.59,0,7.76-.48.5-1.06.9-1.69,1.17-.65.29-1.36.43-2.07.42M101.29,39.76c.48,0,.96-.09,1.4-.29.42-.19.8-.47,1.12-.81.32-.36.58-.77.74-1.22.35-.99.35-2.08,0-3.07-.16-.45-.42-.87-.74-1.22-.31-.34-.69-.62-1.12-.81-.89-.39-1.9-.39-2.79,0-.43.19-.8.46-1.12.81-.32.36-.57.77-.74,1.22-.35,1-.35,2.08,0,3.07.16.45.41.87.74,1.22.31.34.69.62,1.12.81.43.19.91.29,1.39.29"/>
            <path id="Path_28" data-name="Path 28" class="cls-1" d="M109.04,41.18l4.2-10.55h1.55l4.21,10.55h-1.8l-1.04-2.75h-4.28l-1.04,2.75h-1.8ZM112.44,36.96h3.15l-1.58-4.08-1.57,4.08Z"/>
            <path id="Path_29" data-name="Path 29" class="cls-1" d="M123.28,41.18v-9.06h-2.87v-1.49h7.42v1.49h-2.88v9.06h-1.67Z"/>
            <path id="Path_30" data-name="Path 30" class="cls-1" d="M129.24,41.18l4.2-10.55h1.56l4.21,10.55h-1.8l-1.04-2.75h-4.28l-1.04,2.75h-1.8ZM132.64,36.96h3.14l-1.58-4.08-1.56,4.08Z"/>
            <path id="Path_31" data-name="Path 31" class="cls-1" d="M74.25,58.26l1.16-10.55h1.78l2.73,7.2,2.73-7.2h1.78l1.17,10.55h-1.67l-.84-7.52-2.62,7.12h-1.07l-2.63-7.12-.83,7.52h-1.68Z"/>
            <path id="Path_32" data-name="Path 32" class="cls-1" d="M89.43,58.26v-10.55h5.67v1.47h-4v3.06h3.84v1.47h-3.84v3.08h4v1.47h-5.67Z"/>
            <path id="Path_33" data-name="Path 33" class="cls-1" d="M97.75,58.26l4.02-5.69-3.38-4.86h2.01l2.4,3.47,2.4-3.47h2.01l-3.37,4.86,4.01,5.69h-2.08l-2.97-4.23-2.97,4.23h-2.08Z"/>
            <rect id="Rectangle_30" data-name="Rectangle 30" class="cls-1" x="110.93" y="47.71" width="1.68" height="10.55"/>
            <path id="Path_34" data-name="Path 34" class="cls-1" d="M121.67,58.47c-.77,0-1.52-.14-2.23-.42-.67-.27-1.29-.67-1.82-1.17-.52-.5-.94-1.09-1.22-1.74-.59-1.37-.59-2.92,0-4.29.29-.66.71-1.25,1.22-1.75.53-.5,1.14-.9,1.81-1.17.71-.28,1.46-.42,2.22-.42.63,0,1.25.09,1.85.28.54.16,1.05.42,1.51.75l-.73,1.42c-.34-.27-.73-.47-1.14-.59-.45-.14-.91-.21-1.38-.21-.54,0-1.08.1-1.59.29-.47.19-.91.46-1.27.82-.36.35-.64.76-.84,1.22-.39.97-.39,2.04,0,3.01.19.46.48.87.84,1.22.37.35.8.63,1.27.82.51.2,1.05.3,1.59.29.47,0,.94-.07,1.38-.21.42-.13.8-.33,1.14-.59l.73,1.42c-.45.32-.96.57-1.49.74-.6.2-1.23.29-1.86.29"/>
            <path id="Path_35" data-name="Path 35" class="cls-1" d="M127,58.26l4.2-10.55h1.55l4.21,10.55h-1.8l-1.04-2.75h-4.28l-1.04,2.75h-1.8ZM130.41,54.04h3.15l-1.58-4.08-1.57,4.08Z"/>
            <path id="Path_36" data-name="Path 36" class="cls-1" d="M140.11,58.26v-10.55h1.67l4.95,7.75v-7.75h1.67v10.55h-1.67l-4.95-7.74v7.74h-1.68Z"/>
            <path id="Path_37" data-name="Path 37" class="cls-1" d="M151.57,58.26l4.2-10.55h1.55l4.21,10.55h-1.81l-1.04-2.75h-4.28l-1.04,2.75h-1.8ZM154.97,54.04h3.14l-1.58-4.08-1.56,4.08Z"/>
            <path id="Path_38" data-name="Path 38" class="cls-1" d="M31.82,23.08l28.29,28.29-8.46,8.46-9.16-9.16h-2.18l-10.05,10.04-9.37-9.37h-2.19l-8.94,8.94-7.56-7.56,29.63-29.63ZM31.82,20.9L0,52.71l9.75,9.75,10.03-10.03,10.25,10.25-.11.11.21.21,11.25-11.24,10.26,10.26,10.64-10.64-30.48-30.47Z"/>
            <rect id="Rectangle_31" data-name="Rectangle 31" class="cls-1" x="24.66" y="23.76" width="14.5" height="14.5" transform="translate(-12.58 31.65) rotate(-45.01)"/>
            <rect id="Rectangle_32" data-name="Rectangle 32" class="cls-1" x="24.43" y="3.22" width="15.1" height="14.5" transform="translate(1.96 25.67) rotate(-44.99)"/>
            <rect id="Rectangle_33" data-name="Rectangle 33" class="cls-1" x="44.85" y="24.04" width="14.5" height="14.5" transform="translate(-6.87 46) rotate(-45)"/>
            <rect id="Rectangle_34" data-name="Rectangle 34" class="cls-1" x="3.91" y="24.61" width="14.5" height="14.5" transform="translate(-19.26 17.22) rotate(-45)"/>
          </g>
        </g>
      </g>
    </g>
  </g>
</svg>