<?xml version="1.0" encoding="UTF-8"?>
<svg id="Layer_2" data-name="Layer 2" xmlns="http://www.w3.org/2000/svg" xmlns:xlink="http://www.w3.org/1999/xlink" viewBox="0 0 33.85 33.85">
  <defs>
    <style>
      .cls-1 {
        fill: none;
      }

      .cls-2 {
        fill: #96999c;
      }

      .cls-3 {
        clip-path: url(#clippath);
      }
    </style>
    <clipPath id="clippath">
      <rect class="cls-1" width="33.85" height="33.85"/>
    </clipPath>
  </defs>
  <g id="Layer_1-2" data-name="Layer 1">
    <g id="Group_10" data-name="Group 10">
      <g class="cls-3">
        <g id="Group_9" data-name="Group 9">
          <path id="Path_15" data-name="Path 15" class="cls-2" d="M30.09.15H3.61C1.62.15,0,1.77,0,3.76v26.48c0,1.99,1.62,3.61,3.61,3.61h10.32v-11.46h-4.74v-5.39h4.74v-4.11c0-4.67,2.78-7.26,7.05-7.26,1.4.02,2.79.14,4.18.37v4.59h-2.35c-2.32,0-3.04,1.44-3.04,2.91v3.5h5.17l-.83,5.39h-4.34v11.46h10.32c1.99,0,3.61-1.62,3.61-3.61h0V3.76c0-2-1.62-3.61-3.61-3.61h0"/>
        </g>
      </g>
    </g>
  </g>
</svg>