<?xml version="1.0" encoding="UTF-8"?>
<svg id="Layer_2" data-name="Layer 2" xmlns="http://www.w3.org/2000/svg" xmlns:xlink="http://www.w3.org/1999/xlink" viewBox="0 0 35.96 35.96">
  <defs>
    <style>
      .cls-1 {
        fill: #96999c;
      }

      .cls-2 {
        fill: none;
      }

      .cls-3 {
        clip-path: url(#clippath);
      }
    </style>
    <clipPath id="clippath">
      <rect class="cls-2" width="35.96" height="35.96"/>
    </clipPath>
  </defs>
  <g id="Layer_1-2" data-name="Layer 1">
    <g class="cls-3">
      <g id="Group_11" data-name="Group 11">
        <path id="Path_16" data-name="Path 16" class="cls-1" d="M17.99,8.76c-5.09,0-9.22,4.13-9.22,9.22,0,5.09,4.13,9.22,9.22,9.22,5.09,0,9.22-4.13,9.22-9.22h0c0-5.08-4.11-9.21-9.19-9.22h-.03M17.99,23.97c-3.31,0-5.99-2.69-5.99-6,0-3.31,2.69-5.99,6-5.99,3.31,0,5.99,2.68,5.99,5.99,0,3.31-2.69,5.99-6,6ZM29.73,8.38c0,1.19-.96,2.15-2.15,2.15s-2.15-.96-2.15-2.15.96-2.15,2.15-2.15h0c1.19,0,2.15.96,2.15,2.14h0M35.84,10.57c-.14-2.88-.79-5.43-2.91-7.54C30.82.93,28.28.27,25.4.13,22.43-.04,13.53-.04,10.56.13c-2.87.14-5.42.79-7.54,2.9C.92,5.13.27,7.68.13,10.56-.04,13.53-.04,22.42.13,25.39c.13,2.88.79,5.43,2.9,7.53,2.12,2.1,4.66,2.76,7.54,2.91,2.97.17,11.87.17,14.84,0,2.88-.14,5.43-.79,7.53-2.91,2.1-2.11,2.76-4.65,2.9-7.53.17-2.97.17-11.86,0-14.83M32,28.57c-.62,1.56-1.85,2.8-3.42,3.42-2.37.94-7.98.72-10.6.72s-8.24.21-10.6-.72c-1.56-.62-2.8-1.86-3.42-3.42-.94-2.36-.72-7.98-.72-10.59s-.21-8.24.72-10.6c.62-1.56,1.86-2.8,3.42-3.42,2.37-.94,7.99-.72,10.6-.72s8.24-.21,10.6.72c1.56.62,2.8,1.86,3.42,3.42.94,2.37.72,7.98.72,10.6s.22,8.24-.72,10.6"/>
      </g>
    </g>
  </g>
</svg>