<?xml version="1.0" encoding="UTF-8"?>
<svg id="Layer_2" data-name="Layer 2" xmlns="http://www.w3.org/2000/svg" viewBox="0 0 201.81 69.81">
  <defs>
    <style>
      .cls-1 {
        fill: #008148;
      }

      .cls-2 {
        fill: #ee3e33;
      }

      .cls-3 {
        fill: #8dc63f;
      }
    </style>
  </defs>
  <g id="Layer_1-2" data-name="Layer 1">
    <g>
      <g>
        <path class="cls-1" d="M82.16,27.16l4.8-12.05h1.78l4.81,12.05h-2.06l-1.18-3.14h-4.9l-1.19,3.14h-2.05ZM86.05,22.34h3.59l-1.8-4.66-1.79,4.66Z"/>
        <path class="cls-1" d="M99.94,27.4c-.58,0-1.11-.07-1.58-.22-.47-.14-.89-.33-1.25-.54-.36-.22-.66-.44-.9-.65-.24-.22-.43-.4-.55-.54l1.01-1.55c.14.14.31.31.52.5.21.2.45.39.73.57.28.19.59.34.93.47.35.12.73.19,1.15.19.39,0,.75-.07,1.06-.2.31-.13.56-.33.75-.59.19-.26.28-.58.28-.97,0-.34-.07-.62-.21-.86-.14-.24-.34-.45-.6-.62-.26-.18-.56-.35-.92-.51-.36-.16-.75-.33-1.19-.51-.31-.13-.62-.29-.93-.46-.3-.17-.58-.38-.82-.63-.25-.25-.44-.53-.59-.84-.15-.32-.22-.69-.22-1.11,0-.45.09-.88.27-1.3.18-.41.43-.78.76-1.1.33-.32.71-.57,1.16-.76.45-.19.95-.28,1.51-.28.45,0,.89.07,1.32.2.43.13.82.3,1.17.51.35.21.64.43.87.67l-.83,1.46c-.19-.19-.41-.37-.66-.54-.26-.17-.54-.3-.85-.41-.31-.1-.64-.15-.98-.15-.4,0-.74.08-1.01.23-.28.16-.49.36-.64.61-.15.25-.22.52-.22.82,0,.25.05.47.16.65.11.18.25.33.43.46.19.13.4.24.64.35.24.1.5.21.76.31.53.21,1.02.43,1.47.65.45.22.84.47,1.17.75.33.28.59.61.77.99.18.38.27.84.27,1.38,0,.75-.18,1.39-.54,1.93-.36.54-.85.94-1.48,1.23-.63.28-1.36.42-2.18.42Z"/>
        <path class="cls-1" d="M113.53,27.4c-.84,0-1.63-.16-2.37-.48-.74-.32-1.38-.77-1.94-1.34-.55-.57-.99-1.24-1.3-2-.31-.76-.47-1.57-.47-2.44s.16-1.68.47-2.44c.31-.76.75-1.42,1.3-1.99.56-.57,1.2-1.02,1.94-1.34.73-.32,1.52-.48,2.37-.48s1.63.16,2.37.48c.74.32,1.38.77,1.94,1.34.56.57.99,1.24,1.3,1.99.31.75.47,1.57.47,2.44s-.16,1.68-.47,2.44c-.31.76-.75,1.42-1.3,2-.56.57-1.2,1.02-1.94,1.34-.74.32-1.52.48-2.37.48ZM113.53,25.56c.57,0,1.11-.11,1.6-.33.49-.22.92-.53,1.28-.93.36-.4.64-.86.84-1.4.2-.54.3-1.12.3-1.75s-.1-1.22-.3-1.75c-.2-.53-.48-1-.84-1.4-.36-.4-.79-.71-1.28-.93-.49-.22-1.02-.33-1.6-.33s-1.1.11-1.59.33c-.49.22-.92.53-1.28.93-.36.4-.64.86-.84,1.4-.2.54-.3,1.12-.3,1.75s.1,1.22.3,1.75c.2.54.48,1,.84,1.4.36.4.79.71,1.28.93.49.22,1.02.33,1.59.33Z"/>
        <path class="cls-1" d="M129.13,27.4c-.91,0-1.76-.16-2.55-.48-.79-.32-1.48-.76-2.08-1.33-.6-.57-1.06-1.24-1.4-1.99-.34-.76-.5-1.57-.5-2.45s.17-1.69.51-2.45c.34-.76.8-1.42,1.4-1.99.6-.57,1.29-1.01,2.07-1.33.79-.32,1.63-.48,2.54-.48.74,0,1.45.11,2.12.32.67.21,1.24.5,1.73.85l-.84,1.62c-.37-.29-.8-.52-1.3-.68-.5-.16-1.03-.24-1.59-.24-.66,0-1.26.11-1.82.34-.55.22-1.04.53-1.45.93-.41.4-.73.86-.95,1.39-.22.53-.34,1.1-.34,1.71s.11,1.19.34,1.72c.22.53.54,1,.95,1.39.41.4.9.71,1.45.93.56.22,1.16.34,1.82.34.56,0,1.08-.08,1.59-.24.5-.16.94-.39,1.3-.68l.84,1.62c-.47.34-1.04.63-1.71.85-.66.22-1.38.33-2.13.33Z"/>
        <path class="cls-1" d="M136.61,27.16v-12.05h1.91v12.05h-1.91Z"/>
        <path class="cls-1" d="M142.12,27.16l4.8-12.05h1.78l4.81,12.05h-2.06l-1.18-3.14h-4.89l-1.19,3.14h-2.05ZM146.02,22.34h3.59l-1.8-4.66-1.79,4.66Z"/>
        <path class="cls-1" d="M162.48,27.4c-.91,0-1.76-.16-2.55-.48-.79-.32-1.48-.76-2.08-1.33-.6-.57-1.06-1.24-1.4-1.99-.34-.76-.5-1.57-.5-2.45s.17-1.69.51-2.45c.34-.76.8-1.42,1.4-1.99.59-.57,1.29-1.01,2.07-1.33.79-.32,1.63-.48,2.54-.48.74,0,1.45.11,2.12.32.67.21,1.24.5,1.73.85l-.84,1.62c-.37-.29-.8-.52-1.3-.68-.5-.16-1.03-.24-1.58-.24-.66,0-1.26.11-1.82.34-.56.22-1.04.53-1.45.93-.41.4-.73.86-.95,1.39-.22.53-.34,1.1-.34,1.71s.11,1.19.34,1.72c.22.53.54,1,.95,1.39.41.4.89.71,1.45.93.56.22,1.16.34,1.82.34.56,0,1.08-.08,1.58-.24.5-.16.94-.39,1.3-.68l.84,1.62c-.47.34-1.04.63-1.71.85-.66.22-1.37.33-2.13.33Z"/>
        <path class="cls-1" d="M169.95,27.16v-12.05h1.91v12.05h-1.91Z"/>
        <path class="cls-1" d="M182.09,27.4c-.84,0-1.63-.16-2.37-.48-.74-.32-1.38-.77-1.94-1.34-.56-.57-.99-1.24-1.3-2-.31-.76-.47-1.57-.47-2.44s.16-1.68.47-2.44c.31-.76.75-1.42,1.3-1.99.55-.57,1.2-1.02,1.94-1.34.73-.32,1.52-.48,2.37-.48s1.63.16,2.37.48c.74.32,1.38.77,1.94,1.34.56.57.99,1.24,1.3,1.99.31.75.47,1.57.47,2.44s-.16,1.68-.47,2.44-.75,1.42-1.3,2c-.56.57-1.2,1.02-1.94,1.34-.73.32-1.52.48-2.37.48ZM182.09,25.56c.58,0,1.11-.11,1.6-.33.49-.22.91-.53,1.28-.93.36-.4.64-.86.84-1.4.2-.54.3-1.12.3-1.75s-.1-1.22-.3-1.75c-.2-.53-.48-1-.84-1.4-.36-.4-.79-.71-1.28-.93-.49-.22-1.02-.33-1.6-.33s-1.1.11-1.59.33c-.49.22-.92.53-1.28.93-.36.4-.64.86-.84,1.4-.2.54-.3,1.12-.3,1.75s.1,1.22.3,1.75c.2.54.48,1,.84,1.4.36.4.79.71,1.28.93.49.22,1.02.33,1.59.33ZM181.84,14.25l-.8-.64,1.79-3.07,1.27.94-2.26,2.76Z"/>
        <path class="cls-1" d="M192.33,27.16v-12.05h1.92l5.65,8.85v-8.85h1.92v12.05h-1.92l-5.65-8.84v8.84h-1.92Z"/>
        <path class="cls-1" d="M88.91,46.92c-.91,0-1.76-.16-2.55-.48-.79-.32-1.48-.76-2.08-1.33-.6-.57-1.06-1.23-1.4-1.99-.34-.76-.5-1.58-.5-2.45s.17-1.69.51-2.45c.34-.76.8-1.42,1.4-1.99.6-.57,1.29-1.01,2.07-1.33.79-.32,1.63-.48,2.54-.48.75,0,1.45.11,2.12.32.67.21,1.24.5,1.73.86l-.84,1.62c-.36-.29-.8-.52-1.3-.68-.5-.16-1.03-.24-1.59-.24-.66,0-1.26.11-1.82.34-.55.22-1.04.54-1.45.93-.41.4-.73.86-.95,1.39-.22.53-.34,1.1-.34,1.72s.11,1.19.34,1.72c.22.53.54.99.95,1.39.41.39.89.71,1.45.93.55.22,1.16.34,1.82.34.55,0,1.08-.08,1.59-.24.5-.16.94-.39,1.3-.68l.84,1.62c-.47.35-1.04.63-1.71.85-.67.22-1.38.33-2.13.33Z"/>
        <path class="cls-1" d="M96.38,46.68v-12.05h3.75c.81,0,1.51.14,2.11.42.59.28,1.06.69,1.38,1.22.32.53.48,1.17.48,1.91,0,.62-.12,1.17-.35,1.66-.23.49-.56.9-.99,1.22-.43.32-.95.55-1.55.67l3.97,4.95h-2.43l-3.61-4.73h-.85v4.73h-1.91ZM98.3,40.34h1.28c.53,0,.99-.08,1.37-.25.38-.17.67-.41.87-.72.2-.31.3-.69.3-1.13,0-.65-.22-1.16-.67-1.53-.45-.36-1.07-.55-1.88-.55h-1.28v4.18Z"/>
        <path class="cls-1" d="M113.82,46.92c-.84,0-1.63-.16-2.37-.48-.73-.32-1.38-.77-1.94-1.34-.55-.57-.99-1.24-1.3-1.99-.31-.76-.47-1.57-.47-2.44s.16-1.69.47-2.44c.32-.75.75-1.42,1.3-1.99.55-.57,1.2-1.02,1.94-1.34.74-.32,1.52-.48,2.37-.48s1.63.16,2.37.48c.74.32,1.38.77,1.94,1.34.56.57.99,1.24,1.3,1.99.31.75.47,1.57.47,2.44s-.16,1.68-.47,2.44c-.31.76-.75,1.42-1.3,1.99-.55.57-1.2,1.02-1.94,1.34-.73.32-1.52.48-2.37.48ZM113.82,45.08c.57,0,1.11-.11,1.59-.33.49-.22.92-.53,1.28-.93.36-.4.64-.86.84-1.4.2-.54.3-1.12.3-1.75s-.1-1.22-.3-1.75c-.2-.54-.48-1-.84-1.4-.36-.4-.79-.71-1.28-.93-.49-.22-1.02-.33-1.59-.33s-1.1.11-1.59.33c-.49.22-.92.53-1.28.93-.36.4-.64.86-.84,1.4-.2.54-.3,1.12-.3,1.75s.1,1.22.3,1.75c.2.54.48,1,.84,1.4.36.4.79.71,1.28.93.49.22,1.02.33,1.59.33Z"/>
        <path class="cls-1" d="M122.68,46.68l4.8-12.05h1.78l4.81,12.05h-2.06l-1.18-3.14h-4.89l-1.19,3.14h-2.05ZM126.57,41.86h3.6l-1.81-4.66-1.79,4.66Z"/>
        <path class="cls-1" d="M138.95,46.68v-10.35h-3.28v-1.7h8.47v1.7h-3.29v10.35h-1.91Z"/>
        <path class="cls-1" d="M145.75,46.68l4.8-12.05h1.78l4.81,12.05h-2.06l-1.18-3.14h-4.89l-1.19,3.14h-2.05ZM149.65,41.86h3.59l-1.8-4.66-1.79,4.66Z"/>
        <path class="cls-1" d="M82.94,66.21l1.33-12.05h2.03l3.12,8.22,3.12-8.22h2.03l1.33,12.05h-1.91l-.96-8.59-2.99,8.14h-1.22l-3-8.14-.96,8.59h-1.91Z"/>
        <path class="cls-1" d="M100.27,66.21v-12.05h6.48v1.68h-4.57v3.49h4.39v1.68h-4.39v3.52h4.57v1.68h-6.48Z"/>
        <path class="cls-1" d="M109.77,66.21l4.59-6.5-3.86-5.55h2.29l2.74,3.96,2.74-3.96h2.29l-3.85,5.55,4.58,6.5h-2.38l-3.39-4.84-3.39,4.84h-2.38Z"/>
        <path class="cls-1" d="M124.84,66.21v-12.05h1.91v12.05h-1.91Z"/>
        <path class="cls-1" d="M137.11,66.44c-.91,0-1.76-.16-2.55-.48-.79-.32-1.48-.76-2.08-1.33-.6-.57-1.06-1.23-1.4-1.99-.34-.76-.5-1.57-.5-2.45s.17-1.69.51-2.45c.34-.76.81-1.42,1.4-1.99.59-.57,1.29-1.01,2.07-1.33.79-.32,1.63-.48,2.54-.48.75,0,1.45.11,2.12.32.67.21,1.24.5,1.73.86l-.84,1.62c-.37-.29-.8-.52-1.3-.68-.5-.16-1.03-.24-1.59-.24-.66,0-1.26.11-1.82.34-.55.22-1.04.53-1.45.93-.41.4-.73.86-.95,1.39-.22.53-.34,1.1-.34,1.72s.11,1.19.34,1.72c.22.53.54.99.95,1.39.41.4.89.71,1.45.93.56.22,1.16.34,1.82.34.56,0,1.08-.08,1.59-.24.5-.16.94-.39,1.3-.68l.84,1.62c-.47.35-1.04.63-1.71.85-.66.22-1.37.33-2.13.33Z"/>
        <path class="cls-1" d="M143.2,66.21l4.8-12.05h1.78l4.81,12.05h-2.06l-1.18-3.14h-4.89l-1.19,3.14h-2.05ZM147.09,61.39h3.6l-1.8-4.66-1.79,4.66Z"/>
        <path class="cls-1" d="M158.18,66.21v-12.05h1.91l5.65,8.85v-8.85h1.91v12.05h-1.91l-5.65-8.84v8.84h-1.91Z"/>
        <path class="cls-1" d="M171.26,66.21l4.8-12.05h1.77l4.81,12.05h-2.06l-1.18-3.14h-4.89l-1.19,3.14h-2.05ZM175.16,61.39h3.59l-1.8-4.66-1.79,4.66Z"/>
      </g>
      <g>
        <g>
          <polygon class="cls-2" points="34.9 0 23.27 11.63 34.9 23.26 23.27 34.89 11.64 23.26 0 34.89 11.64 46.53 23.27 34.9 34.9 46.53 46.53 34.89 34.9 23.26 46.53 11.63 34.9 0"/>
          <rect class="cls-2" x="49.94" y="26.67" width="16.45" height="16.45" transform="translate(-7.64 51.35) rotate(-45)"/>
        </g>
        <polygon class="cls-3" points="69.83 58.17 46.54 34.89 34.9 46.52 23.27 34.89 0 58.17 11.64 69.81 23.27 58.18 34.9 69.81 46.53 58.18 58.17 69.81 69.83 58.17"/>
      </g>
    </g>
  </g>
</svg>