<?xml version="1.0" encoding="UTF-8"?>
<svg id="Layer_2" data-name="Layer 2" xmlns="http://www.w3.org/2000/svg" viewBox="0 0 94.3 58.49">
  <defs>
    <style>
      .cls-1 {
        fill: #231f20;
      }

      .cls-2 {
        fill: #e5e5e5;
      }

      .cls-3 {
        fill: #96999c;
      }
    </style>
  </defs>
  <g id="Layer_1-2" data-name="Layer 1">
    <g>
      <g>
        <g>
          <path class="cls-3" d="M22.4,58.21c9.6,0,17.45-7.85,17.45-17.45v-20.73H4.95v20.73c0,9.6,7.85,17.45,17.45,17.45h0Z"/>
          <path class="cls-3" d="M39.84,20.03v20.73c0,9.6-7.85,17.45-17.45,17.45h0c-9.6,0-17.45-7.85-17.45-17.45v-20.73h34.9M40.13,19.75H4.67v21.01c0,2.38.47,4.7,1.4,6.88.9,2.11,2.18,4.01,3.81,5.64s3.53,2.91,5.64,3.81c2.19.93,4.5,1.4,6.88,1.4s4.7-.47,6.88-1.4c2.11-.9,4.01-2.18,5.64-3.81,1.63-1.63,2.91-3.53,3.81-5.64.93-2.19,1.4-4.5,1.4-6.88v-21.01h0Z"/>
        </g>
        <path class="cls-2" d="M22.4,57.93c9.41,0,17.12-7.7,17.12-17.12v-20.45H5.28v20.45c0,9.41,7.7,17.12,17.12,17.12Z"/>
        <path class="cls-3" d="M22.41.75l4.4,3.61,4.94-2.83,3.75,4.28,5.34-1.98,3.32,5.36-4.32,9.79c-5.32-2.43-11.22-3.79-17.44-3.79s-12.12,1.36-17.44,3.79L.65,9.19,3.97,3.83l5.34,1.98,3.75-4.28,4.94,2.83,4.4-3.61M22.41,0l-.37.3-4.1,3.36-4.6-2.63-.41-.23-.31.36-3.49,3.99-4.97-1.84-.44-.16-.25.4L.16,8.89l-.16.26.12.28,4.31,9.79.24.54.53-.24c5.43-2.48,11.21-3.74,17.2-3.74s11.77,1.26,17.2,3.73l.53.24.24-.54,4.32-9.79.12-.28-.16-.26-3.32-5.36-.25-.4-.44.16-4.97,1.84-3.49-3.99-.31-.36-.41.23-4.6,2.63L22.77.3l-.37-.3h0Z"/>
        <path class="cls-1" d="M40.81,15.5l1.03-2.34c-2.42-1.07-4.94-1.95-7.54-2.61l-.61,2.39c2.47.63,4.86,1.46,7.15,2.47l-.04.08Z"/>
        <path class="cls-3" d="M9.47,6.41h0s-5.28-1.94-5.28-1.94l-2.95,4.77,1.13,2.57,2.87,6.51c2.14-.95,4.37-1.72,6.68-2.31l-2.43-9.59Z"/>
        <path class="cls-2" d="M22.38,57.23c9.06,0,16.46-7.41,16.46-16.46v-19.76H5.92v19.76c0,9.05,7.41,16.46,16.46,16.46Z"/>
        <g>
          <polygon class="cls-3" points="12.5 21.01 5.92 21.01 5.92 28.24 12.5 28.24 12.5 21.01"/>
          <path class="cls-3" d="M5.92,40.77c0,.66.04,1.31.12,1.94h6.47v-7.24h-6.59v5.29h0Z"/>
          <path class="cls-3" d="M32.27,53.91c1.46-1.1,2.73-2.44,3.76-3.96h-3.76v3.96Z"/>
          <path class="cls-3" d="M8.74,49.95c1.03,1.52,2.3,2.86,3.77,3.96v-3.96h-3.77Z"/>
          <path class="cls-3" d="M23.53,57.19c.73-.05,1.45-.15,2.15-.29v-6.94h-6.59v6.95c.7.14,1.41.24,2.14.29.77.05,1.53.05,2.3,0Z"/>
          <path class="cls-3" d="M38.73,42.72c.08-.64.12-1.29.12-1.95v-5.29h-6.58v7.24h6.46Z"/>
          <polygon class="cls-3" points="25.68 21.01 19.09 21.01 19.09 28.24 25.68 28.24 25.68 21.01"/>
          <polygon class="cls-3" points="25.68 35.48 19.09 35.48 19.09 42.72 25.68 42.72 25.68 35.48"/>
          <polygon class="cls-3" points="19.09 42.72 12.5 42.72 12.5 49.95 19.09 49.95 19.09 42.72"/>
          <polygon class="cls-3" points="32.26 42.72 25.67 42.72 25.67 49.95 32.26 49.95 32.26 42.72"/>
          <polygon class="cls-3" points="19.09 28.24 12.5 28.24 12.5 35.48 19.09 35.48 19.09 28.24"/>
          <polygon class="cls-3" points="32.26 28.24 25.67 28.24 25.67 35.48 32.26 35.48 32.26 28.24"/>
          <polygon class="cls-3" points="38.85 21.01 32.26 21.01 32.26 28.24 38.85 28.24 38.85 21.01"/>
        </g>
        <path class="cls-2" d="M9.17,11.12c.19.36.3.77.3,1.2,0,1.42-1.16,2.58-2.58,2.58-1.25,0-2.3-.9-2.53-2.09.45.79,1.29,1.32,2.26,1.32,1.43,0,2.59-1.16,2.59-2.59,0-.14-.01-.28-.04-.42Z"/>
        <path class="cls-3" d="M11.3,13.62c2.39-.61,4.85-1.02,7.37-1.23l-.21-2.49c-2.66.22-5.26.66-7.78,1.3l.62,2.43Z"/>
        <path class="cls-3" d="M10.08,8.8c2.65-.68,5.39-1.14,8.18-1.37l-.2-2.45c-2.94.24-5.8.72-8.59,1.43l.61,2.38h0Z"/>
        <g>
          <path class="cls-3" d="M33.7,12.94c2.47.63,4.86,1.46,7.15,2.47l2.73-6.18-2.95-4.77-5.27,1.95-1.66,6.54h0Z"/>
          <path class="cls-3" d="M33.53,13.62h0s-.61,2.38-.61,2.38c2.3.59,4.52,1.36,6.65,2.3h0l.99-2.25c-2.26-1-4.61-1.82-7.04-2.44Z"/>
        </g>
        <path class="cls-2" d="M41.85,13.16l.28-.3v-.3c-2.46-1.08-5.01-1.97-7.65-2.64l-.16.34v.29c2.6.66,5.12,1.54,7.54,2.61h0Z"/>
        <polygon class="cls-2" points="5.13 7.23 5.16 7.26 5.87 7.87 6.77 7.57 6.81 7.55 6.8 7.6 6.62 8.52 7.33 9.14 7.36 9.17 7.32 9.19 6.43 9.49 6.25 10.42 6.24 10.46 6.21 10.43 5.49 9.81 4.6 10.12 4.56 10.13 4.57 10.09 4.75 9.16 4.04 8.54 4 8.52 4.04 8.5 4.94 8.19 5.12 7.27 5.13 7.23"/>
        <polygon class="cls-2" points="38.34 7.46 38.38 7.47 39.25 7.82 40 7.24 40.03 7.21 40.04 7.25 40.17 8.19 41.05 8.54 41.09 8.55 41.05 8.58 40.31 9.17 40.45 10.1 40.45 10.14 40.41 10.13 39.54 9.78 38.79 10.36 38.76 10.39 38.75 10.34 38.62 9.41 37.74 9.06 37.7 9.04 37.74 9.02 38.48 8.43 38.34 7.5 38.34 7.46"/>
        <path class="cls-3" d="M26.77,4.97h-.01s-4.35-3.56-4.35-3.56l-4.34,3.56.82,9.86c1.16-.1,2.34-.15,3.53-.15s2.38.05,3.54.15l.82-9.86h0Z"/>
        <path class="cls-3" d="M27.73,7.02c.17-.04.34-.05.5.05.07.03.12.07.16.11.08-.06.15-.11.23-.16.11-.08.22-.16.35-.2.18-.09.35-.14.53-.16.18-.03.37-.03.55-.02.15,0,.3.05.45.13.13.06.26.13.39.19.14.08.27.14.41.2.17.07.37.09.57.1.1,0,.2,0,.3-.02.08-.02.13.03.04.08-.64.39-1.14.04-1.57-.11.16.11.3.22.41.33.16.16.34.32.67.46.2.09.41.16.68.16.09,0,.19,0,.3-.02.05,0,.08,0,.08.03,0,.02,0,.06-.04.08-.16.11-.32.14-.49.15-.33.02-.68-.09-1.01-.26-.26-.14-.43-.31-.64-.46-.21-.15-.38-.24-.57-.28-.19-.04-.39-.04-.56.02.05,0,.1.03.12.06.09.05.2.07.37.09.09,0,.06.07-.07.14-.08.1-.18.16-.32.14-.19.12-.26.05-.32-.03,0,.05-.02.1-.05.15,0,.03,0,.05,0,.08.03.05.04.09.04.14,0,.03.01.05.04.07.04.04.06.08.07.13,0,.03.02.06.05.09.04.03.08.06.12.11.11.04.17.13.19.24.09.03.12.09.14.17.05.02.09.04.12.09.18,0,.35,0,.51.02.15.02.27.11.38.23.07.01.15.02.23,0,.08-.04.16-.06.25-.07.15-.01.3-.02.45.02.1.02.17.07.23.14.09.1.23.09.35.04.16-.07.29-.06.46,0,.07-.03.14-.04.21-.03.06-.06.12-.08.19-.08.11,0,.18.01.16.15,0,.04-.03.07-.05.09-.05.11-.14.14-.26.13-.01.07-.04.12-.09.16.05.17,0,.23-.12.23-.03.05-.07.08-.13.07-.05.06-.11.09-.17.1,0,.04.03.07.06.11.08.13-.04.18-.16.18.03.08.03.17.02.25.12.07.13.15.03.22.08.14.05.24-.1.32,0,.08,0,.16-.06.2-.04.03-.09.04-.05.09.06.1.05.23-.04.23-.02,0-.04,0-.04.03,0,0,0,.02-.03.03-.11.06-.21.12-.3.2-.01,0-.03.02-.04,0-.07.15-.19.3-.33.45-.02.11-.09.19-.19.22,0,.03-.03.05-.06.06.06.06.08.13.02.19-.07.08-.16.15-.25.17-.19.05-.31.04-.39-.03-.07-.06-.04-.11,0-.13-.12,0-.14-.05-.14-.14,0-.04.02-.04.06-.04.07,0,.12-.03.19-.05.02-.04.05-.08.09-.11.02-.13.11-.21.22-.25.09-.04.18-.12.27-.24.05-.09.11-.19.16-.28-.04-.05-.05-.1-.05-.15-.05-.03-.08-.06-.11-.1-.08,0-.12-.04-.13-.1-.02,0-.04,0-.06,0-.04.03-.08.05-.13.05-.07.07-.14.13-.21.17-.03.07-.08.1-.14.11-.17.02-.28.24-.37.32-.04.03-.06.08-.08.14,0,.11-.03.2-.09.2-.06,0-.06,0-.07-.01-.03,0-.05,0-.07,0,.05.05.05.12.01.17-.04.05-.11.07-.16.08-.12,0-.22,0-.32-.04-.09-.04-.1-.09-.1-.14-.06-.03-.08-.06-.07-.09,0-.04.04-.06.09-.05.04-.02.08-.03.11-.04.11-.12.23-.22.35-.27.04-.04.08-.09.13-.12.02-.11.09-.19.17-.27,0-.04.02-.08.04-.12,0-.02,0-.04,0-.05-.04-.07-.06-.14-.03-.21-.01-.03-.01-.07,0-.1-.21.12-.27.08-.29-.02-.08.06-.15.09-.2,0-.07.02-.15.05-.22.02-.05.02-.1.04-.15.04-.02.04-.05.09-.09.13,0,.09-.04.19-.1.28-.04.1-.08.2-.13.3,0,.03,0,.06-.02.1.02.12-.02.17-.09.2-.02.04-.04.09-.08.14,0,.01,0,.03,0,.05.02.07.03.13-.04.2-.06.04-.11.07-.17.1-.07.03-.13.02-.19,0-.1-.04-.09-.07-.08-.11-.03.01-.07.02-.1,0-.03-.01-.04-.03-.06-.05-.02-.04-.03-.07.02-.1.07-.03.11-.05.17-.11.02-.04.04-.07.07-.08.03-.08.07-.13.12-.14.04-.09.08-.2.13-.28.02-.03.03-.06.02-.09,0-.03,0-.05.02-.06,0,0,.03-.02,0-.03-.03-.08,0-.16.03-.22.05-.08.12-.28.06-.38,0-.05-.02-.12-.01-.17-.02,0-.04,0-.05-.01-.04-.03-.08,0-.11.05-.02.06-.05.12-.07.12-.02.16-.1.28-.18.31-.02.07-.03.14-.02.22,0,.08,0,.13-.04.14-.04,0-.08.03-.1.1,0,.02-.01.04-.01.06.05.06.04.13-.02.18-.12.12-.27.1-.43.05-.12-.05-.14-.09-.13-.14-.16-.01-.13-.14,0-.18.15-.04.26-.13.36-.27,0-.16.04-.26.13-.28,0-.1.04-.18.08-.27.04-.07.07-.16.05-.26-.09-.06-.09-.11,0-.17.03-.02.02-.03,0-.05-.05,0-.05-.06-.04-.11,0-.03-.02-.04-.04-.04-.12-.02-.09-.07-.04-.12.02-.03.04-.06.01-.08-.02-.01-.03-.05-.04-.09-.07-.05-.04-.11,0-.17-.04-.04-.06-.09-.07-.15-.14,0-.19-.08-.12-.18.03-.04.07-.09.12-.12.03-.05.06-.1.05-.15-.04-.1.09-.18.2-.26-.02-.03-.02-.05-.02-.08-.06-.06-.05-.12.02-.17-.02-.03-.02-.05-.03-.08-.15.03-.15-.06-.08-.21-.09-.05-.06-.14.1-.28,0-.03,0-.05.02-.07-.08,0-.14.02-.19.06-.06.04-.12.04-.18,0-.02-.03-.05-.06-.08-.08-.04-.04-.05-.08-.04-.12-.18,0-.21-.12-.11-.2.06-.05.11-.1.12-.15.05-.12.15-.21.25-.29,0-.04,0-.07.02-.11-.04-.03-.09-.05-.14-.06-.02-.05-.05-.09-.11-.12-.03-.02-.04-.04-.02-.08-.1-.09-.07-.13-.05-.19h0Z"/>
        <path class="cls-2" d="M35.05,12.37c.07-.04.14-.03.22-.02.06-.02.13-.03.2-.03.03-.02.07-.03.11-.04.02-.02.02-.04,0-.06-.02-.02-.03-.04-.03-.07-.12-.07-.16-.17-.21-.28-.07-.02-.1-.04-.11-.06-.03,0-.07,0-.1,0-.15.02-.19-.03-.25-.07-.05-.01-.09-.04-.11-.09-.02-.02-.03-.04-.05-.06-.04-.05-.03-.12.04-.12.04,0,.09,0,.13-.01.05-.02.12-.02.17-.02.06,0,.11-.04.17-.1,0-.03,0-.05,0-.08,0-.03,0-.04.04-.04.08,0,.13.04.17.1.1.02.17.06.22.14.13,0,.22.05.23.1,0,.04-.03.08-.09.12v.03s.06.06.07.09c.07.03.14.06.21.12.18-.02.5.11.92.38.27.05.54.12.79.23.05,0,.11,0,.16,0,.46-.07.9-.02,1.31.3.16.02.3.07.43.12.1.04.2.06.3.07.17.02.33.06.5.13.19.04.36.1.47.23.08.09.06.18-.04.21-.06.12-.18.13-.36.07-.12.02-.26-.08-.38-.17-.17-.05-.33-.15-.48-.26-.08-.06-.16-.1-.24-.12-.06-.01-.12-.02-.15,0-.02,0-.02.02,0,.03.04.04.07.09.08.15,0,.06,0,.12,0,.19,0,.07.05.13.12.17.05.03.11.06.2.08.04,0,.05.03.05.06.02.11.04.22.08.33.01.03.04.04.07.06.11.08.05.17-.05.19-.09.08-.17.13-.26.15-.07.03-.1,0-.13-.04-.05,0-.07-.02-.09-.05-.09-.07-.01-.18.2-.13,0-.03.02-.03.04-.03-.01-.06-.02-.12,0-.18-.02-.01-.04-.03-.06-.04-.08-.03-.15-.06-.21-.12-.11-.1-.28-.19-.45-.28-.14,0-.24-.07-.35-.12h-.15s-.08,0-.1.03c-.05.05-.09.04-.15.04-.07,0-.14,0-.21,0-.03,0-.07.02-.1.02-.08,0-.15,0-.2.04-.04.04-.09.04-.13.02-.03-.01-.05-.03-.07-.04-.05-.01-.09-.03-.1-.04-.09-.03-.12-.05-.11-.08-.12-.03-.06-.12.02-.12.09,0,.17.01.26.03.07.02.17,0,.23-.05.04-.04.05-.07.1-.09-.15,0-.27-.04-.35-.09-.22-.14-.4-.17-.55-.05-.04.02-.07.03-.11.02-.03-.01-.08-.01-.11,0-.08.02-.16,0-.24-.02-.12.03-.24.04-.36.01-.1.05-.17.06-.22.02-.04-.02-.09-.05-.12-.08-.06,0-.09-.03-.09-.05-.08,0-.09-.04-.09-.07-.03-.04-.02-.07.01-.09.06-.03.12-.04.19,0,.04.02.07.04.1.06.04,0,.08,0,.12.01.03-.04.1-.04.18-.04.04-.03.09-.05.15-.05,0,0,0-.02,0-.03-.08-.02-.12-.08-.16-.14-.12,0-.21-.05-.3-.11-.07,0-.13-.02-.19-.05-.05,0-.1,0-.15,0-.09.03-.19.03-.27,0-.06,0-.11,0-.16,0-.06.06-.12.07-.19.04-.04-.05-.09-.08-.16-.1-.05-.02-.07-.04-.08-.06-.06-.04-.05-.08,0-.11.05-.02.1-.03.19.02.03,0,.06.02.1.02h0Z"/>
        <g>
          <path class="cls-2" d="M24.44,4.99s.02,0,.03.02c.08.12.15.22.23.34.09.03.11.09.07.16.12,0,.13.09.13.2.12-.17.25-.21.38-.12,0-.11.09-.15.21-.17.08,0,.15-.02.2-.06.03-.02.05-.03.08-.04.06-.04.1,0,.08.04-.13.19-.26.38-.4.58,0,.04,0,.07-.04.09-.02.06-.05.12-.07.18,0,.02,0,.04.01.05.1-.04.21-.04.31-.04.08,0,.13-.02.17-.05.03-.03.04,0,.04.04,0,.24-.1.46-.31.67.11,0,.21.02.32.03.04,0,.04.02.03.05-.06.14-.17.26-.39.33.09.05.14.14.15.24,0,.1.03.18.09.21.03.02.04.03,0,.05-.12.08-.26.08-.41.03.07.12.09.26.07.39-.1.02-.19,0-.28-.04.01.03.02.08.02.14,0,.05.01.11.04.16.02.02.03.04,0,.05-.16.04-.3,0-.42-.04,0,.11-.01.22-.05.33,0,.03-.03.04-.06,0-.06-.1-.14-.19-.23-.25-.02.04-.04.07-.08.09-.04.02-.07.07-.08.15,0,.02,0,.03-.02.04-.07,0-.23-.19-.26-.29-.1.05-.13.11-.21.2-.03.03-.04.01-.06-.01-.02-.11-.02-.22-.01-.33-.13.04-.27.05-.42,0-.03,0-.02-.03,0-.05.03-.05.05-.11.06-.16,0-.06.01-.1.03-.13-.09.03-.19.04-.28,0,0-.14.04-.26.12-.38-.15.03-.3.02-.41-.07-.02-.02-.01-.04.01-.05.06-.03.1-.1.11-.2.02-.11.08-.18.18-.23-.22-.1-.31-.22-.36-.37,0-.03,0-.04.04-.04.11,0,.22,0,.32,0-.19-.23-.26-.45-.24-.7,0-.05.02-.07.05-.04.03.04.08.07.15.08.1.01.2.02.3.07,0-.02.01-.03.02-.05-.02-.06-.04-.12-.06-.18-.04-.03-.05-.06-.04-.1-.11-.2-.21-.41-.33-.61-.02-.04.03-.07.08-.03.03.02.05.03.07.05.05.04.12.07.2.08.11.03.19.09.19.19.14-.07.26-.02.37.16,0-.11.03-.21.15-.19-.03-.08,0-.13.09-.16.09-.11.22-.21.31-.31.01-.02.02-.02.03-.02Z"/>
          <path class="cls-3" d="M24.39,5.81c-.03-.06-.06-.11-.1-.16-.04-.04-.07-.07-.12-.09.05-.04.11-.09.15-.15.03-.04.05-.09.07-.14.03.06.06.12.1.17.04.05.08.09.13.12-.05.03-.1.06-.14.11-.04.04-.07.08-.09.13h0Z"/>
          <path class="cls-3" d="M25.39,6.71l-.04-.09c.08-.03.29-.14.32-.26.02-.07.02-.11.02-.12,0-.01,0-.02.02-.09l.09.02c-.01.05-.01.06-.01.06,0,.02,0,.03-.03.15-.04.19-.34.31-.37.33Z"/>
          <path class="cls-3" d="M23.32,6.57s-.34-.14-.37-.33c-.01-.07,0-.1,0-.13,0-.02,0-.03,0-.08l.09-.02c.01.07,0,.09,0,.12,0,.02,0,.04,0,.1.02.12.24.23.32.26l-.04.09Z"/>
          <g>
            <path class="cls-3" d="M24.62,7.31v-.06c0-.06.02-.12.05-.17l-.02-.02.05-.03c.07-.04.15-.07.21-.09.07-.02.14-.03.2-.03h.07v.06s-.03.06-.04.09c-.02.04-.04.07-.07.09-.03.02-.06.04-.1.06-.04.02-.09.03-.16.04h0s0,0,0,0c-.03,0-.05,0-.08.02-.02,0-.04.01-.06.02l-.06.02ZM24.76,7.1h0s-.02.05-.03.08c.03,0,.05-.01.08-.02h0c.05-.01.1-.03.14-.04.03-.01.06-.03.08-.04.02-.02.03-.04.04-.06,0,0,0,0,0-.01-.04,0-.08.01-.13.02-.06.02-.12.04-.18.07Z"/>
            <path class="cls-3" d="M24.07,7.28l-.06-.02s-.04-.01-.06-.02c-.03,0-.05-.01-.08-.02h0s0,0,0,0c-.06-.01-.11-.03-.16-.04-.04-.02-.08-.04-.1-.06-.03-.02-.05-.05-.07-.09-.01-.03-.02-.05-.03-.09v-.06s.06,0,.06,0c.06,0,.13,0,.2.03.07.02.14.05.22.09l.06.03-.02.02c.03.05.05.11.05.17v.06ZM23.89,7.13s.05,0,.08.02c0-.03-.02-.05-.03-.07h0c-.06-.04-.13-.06-.19-.08-.04-.01-.09-.02-.13-.03,0,0,0,0,0,.01.01.03.03.04.04.06.02.02.04.03.08.04.04.02.08.03.14.04h0Z"/>
            <path class="cls-3" d="M24.3,7.94l-.38-.39.09-.02c.24-.04.45-.01.5,0,0-.02,0-.04-.01-.06-.04-.16-.1-.44-.02-.62h0s0-.02,0-.02c.02-.01.43-.32.68-.13l-.05.08c-.16-.12-.45.05-.56.12-.06.16,0,.41.03.55.02.1.03.13.01.15-.07.11-.26.29-.27.3l-.03.03ZM24.12,7.62l.19.19s.12-.12.17-.19c-.06,0-.2-.02-.36,0Z"/>
            <path class="cls-3" d="M24.03,8.17c-.11,0-.19-.04-.3-.15l.07-.07c.12.12.19.13.32.11.12-.02.15-.24.15-.24h.09s-.04.31-.23.34c-.04,0-.07,0-.1,0Z"/>
            <path class="cls-3" d="M24.57,8.18s-.04,0-.06,0c-.19-.03-.23-.31-.23-.33h.09s.06.22.16.23c.09.02.14-.02.2-.07.03-.02.05-.04.09-.06l.05.08s-.05.04-.08.05c-.06.04-.12.09-.22.09Z"/>
            <path class="cls-3" d="M24.31,8.43c-.09,0-.2-.02-.3-.12l.06-.07c.12.12.28.09.34.08.1-.02.19-.16.21-.21l.08.04s-.12.24-.27.27c-.03,0-.07.01-.13.01Z"/>
            <path class="cls-3" d="M24.12,6.94c-.08-.05-.36-.21-.45-.23-.08-.02-.1-.02-.18.03l-.04-.08c.1-.05.15-.07.25-.03.1.03.4.2.47.24l-.05.08Z"/>
          </g>
          <path class="cls-3" d="M25.29,6.38h0c-.11-.01-.21-.03-.29-.04-.24-.03-.41-.05-.64-.05-.34,0-.61.02-.92.06-.04,0-.08-.02-.08-.06,0-.04.02-.08.06-.08.31-.04.6-.06.94-.06.23,0,.42.02.66.05.09.01.18.03.29.04.04,0,.07.04.06.08,0,.04-.04.06-.07.06Z"/>
          <path class="cls-3" d="M25.46,6.06h0c-.12-.01-.23-.03-.33-.04-.27-.04-.47-.06-.73-.07-.39,0-.7,0-1.06.04-.03,0-.05-.02-.05-.04s.02-.05.04-.05c.36-.04.67-.05,1.07-.04.27,0,.48.04.74.07.1.01.21.03.33.04.03,0,.04.03.04.05,0,.03-.02.04-.05.04Z"/>
          <path class="cls-3" d="M23.4,6.27s-.13-.23-.18-.37l.09-.03c.05.13.17.35.17.35l-.08.05Z"/>
          <path class="cls-3" d="M25.33,6.33l-.09-.03c.05-.15.18-.34.19-.34l.07.05s-.13.18-.18.32Z"/>
        </g>
        <g>
          <path class="cls-2" d="M20.48,4.99s.02,0,.03.02c.09.11.18.21.27.32.09.02.12.08.08.15.12-.02.14.08.15.19.11-.18.23-.23.37-.16,0-.11.08-.16.19-.19.08,0,.14-.04.2-.08.03-.02.05-.03.07-.05.05-.04.1,0,.08.03-.11.21-.22.41-.34.61,0,.04,0,.07-.04.1-.02.06-.04.12-.05.18,0,.02.01.04.02.05.1-.05.2-.07.3-.08.08,0,.13-.03.16-.07.02-.03.04-.01.04.04.01.24-.05.47-.24.7.11,0,.21,0,.32,0,.04,0,.05.02.04.05-.05.14-.14.27-.36.37.1.05.15.12.17.23,0,.1.04.17.11.2.03.01.04.03.01.05-.11.09-.25.1-.41.07.08.12.12.25.11.38-.09.03-.19.02-.28,0,.01.03.02.08.03.14,0,.05.02.1.05.15.02.01.03.04,0,.05-.15.05-.29.04-.42,0,0,.11,0,.22-.02.34,0,.03-.03.05-.06.01-.07-.1-.15-.17-.25-.22-.01.04-.03.08-.07.1-.04.03-.06.08-.06.16,0,.01,0,.03-.02.04-.07,0-.24-.16-.28-.26-.09.06-.12.12-.19.22-.02.04-.04.02-.06,0-.04-.11-.04-.22-.05-.33-.12.05-.26.08-.42.04-.03,0-.02-.03,0-.05.03-.05.04-.12.04-.17,0-.06,0-.1.01-.13-.09.04-.18.06-.28.04-.02-.13.01-.26.08-.39-.15.04-.3.05-.42-.03-.03-.02-.02-.03,0-.05.06-.04.09-.11.09-.21,0-.11.06-.19.15-.25-.23-.07-.33-.2-.4-.33,0-.03,0-.04.03-.05.11,0,.22-.02.32-.03-.21-.21-.3-.43-.31-.67,0-.05.01-.07.04-.04.04.04.08.06.16.06.1,0,.2,0,.3.04,0-.02,0-.04.01-.05-.03-.06-.05-.12-.08-.18-.04-.02-.05-.05-.04-.09-.13-.19-.25-.38-.39-.58-.03-.04.02-.08.08-.04.03.02.05.03.08.04.06.03.12.05.2.05.12.02.19.07.21.17.13-.09.26-.05.38.12,0-.11,0-.21.13-.2-.04-.08-.01-.13.07-.17.08-.12.2-.23.28-.35.01-.02.02-.02.03-.02Z"/>
          <path class="cls-3" d="M20.51,5.81c-.03-.05-.07-.11-.12-.14-.04-.03-.08-.06-.12-.07.05-.04.1-.1.13-.16.02-.04.05-.09.06-.14.03.06.07.12.12.16.04.04.09.08.14.11-.05.03-.1.07-.13.12-.03.04-.05.09-.07.14h0Z"/>
          <path class="cls-3" d="M21.6,6.61l-.04-.08c.07-.04.27-.17.29-.29,0-.07.01-.11,0-.12,0-.01,0-.02,0-.09h.09c0,.06,0,.07,0,.08,0,.02,0,.03-.01.15-.02.19-.31.35-.34.36Z"/>
          <path class="cls-3" d="M19.53,6.68s-.35-.1-.4-.29c-.02-.07-.02-.1-.02-.13,0-.02,0-.04-.01-.08l.09-.03c.02.06.02.09.02.12,0,.02,0,.04.01.09.03.12.26.2.34.23l-.03.09Z"/>
          <g>
            <path class="cls-3" d="M20.9,7.28v-.06c-.02-.06,0-.12.02-.17l-.02-.02.05-.04c.07-.04.14-.08.21-.11.07-.03.14-.05.21-.05h.06s0,.05,0,.05c0,.04,0,.06-.02.09-.01.04-.03.07-.06.1-.03.03-.06.05-.1.07-.04.02-.09.04-.15.06h0s0,0,0,0c-.03,0-.05.02-.08.03-.02,0-.04.02-.06.02l-.06.02ZM21.01,7.06h0s-.02.06-.03.08c.03,0,.05-.02.08-.03h0c.05-.02.1-.04.13-.05.03-.02.05-.03.07-.05.02-.02.03-.04.04-.07,0,0,0,0,0-.01-.04,0-.08.02-.12.04-.06.02-.12.05-.18.09Z"/>
            <path class="cls-3" d="M20.35,7.31h-.06s-.04-.02-.06-.02c-.03,0-.05,0-.08-.01h0s0,0,0,0c-.06,0-.11-.02-.16-.03-.04-.01-.08-.03-.11-.05-.03-.02-.06-.05-.08-.09-.01-.02-.03-.05-.04-.09l-.02-.05h.06c.06-.02.14-.01.21,0,.07.01.15.03.22.06l.06.02-.02.02s.06.1.06.17v.06ZM20.15,7.18s.06,0,.08,0c-.01-.02-.03-.04-.04-.07h0c-.07-.03-.13-.05-.19-.06-.04,0-.09-.01-.13-.01,0,0,0,0,0,.01.01.03.03.04.05.05.02.02.05.03.08.04.04.01.09.02.14.03h0Z"/>
            <path class="cls-3" d="M20.64,7.94l-.42-.35.09-.02c.23-.06.44-.06.5-.05,0-.02-.01-.04-.02-.06-.05-.16-.14-.42-.08-.61h0s0-.02,0-.02c.02-.02.39-.37.67-.21l-.05.08c-.2-.11-.49.13-.55.18-.04.16.04.41.09.54.03.1.04.12.03.15-.06.12-.23.32-.23.33l-.03.04ZM20.42,7.64l.21.17s.1-.13.15-.2c-.06,0-.2,0-.36.03Z"/>
            <path class="cls-3" d="M20.35,8.21c-.09,0-.17-.04-.27-.12l.06-.07c.14.11.2.11.33.08.12-.03.13-.26.13-.26h.09s-.02.3-.2.35c-.06.01-.1.02-.15.02Z"/>
            <path class="cls-3" d="M20.9,8.15s-.01,0-.02,0c-.19,0-.26-.29-.27-.3l.09-.02c.02.06.08.22.18.23.09,0,.14-.03.2-.09.03-.02.05-.04.08-.07l.05.08s-.05.04-.07.06c-.06.06-.12.11-.24.11Z"/>
            <path class="cls-3" d="M20.65,8.43c-.08,0-.17-.02-.26-.09l.06-.07c.14.11.29.06.35.05.1-.03.17-.18.19-.23l.09.03s-.09.25-.24.29c-.04.01-.1.03-.18.03Z"/>
            <path class="cls-3" d="M20.35,6.96c-.09-.04-.38-.17-.47-.19-.08-.02-.1,0-.18.04l-.05-.08c.09-.06.14-.08.25-.06.11.02.43.16.49.2l-.04.08Z"/>
          </g>
          <path class="cls-3" d="M21.47,6.29h0c-.11,0-.21,0-.3,0-.24,0-.42-.01-.64,0-.34.03-.61.08-.91.15-.04,0-.08-.01-.09-.05,0-.04.01-.08.05-.09.31-.07.59-.12.93-.15.23-.02.42-.02.66-.01.09,0,.18,0,.29,0,.04,0,.07.03.07.07s-.03.07-.06.07Z"/>
          <path class="cls-3" d="M21.61,5.96h0c-.12,0-.23,0-.33,0-.28,0-.48-.02-.74,0-.39.03-.7.07-1.05.14-.03,0-.05,0-.06-.04,0-.03.01-.05.04-.05.35-.07.67-.12,1.06-.15.26-.02.47-.02.74,0,.1,0,.21,0,.33,0,.03,0,.05.02.04.05,0,.03-.02.04-.04.05Z"/>
          <path class="cls-3" d="M19.57,6.37s-.15-.22-.21-.35l.08-.04c.06.12.21.33.21.33l-.08.06Z"/>
          <path class="cls-3" d="M21.5,6.24l-.09-.02c.04-.16.15-.35.15-.36l.08.05s-.11.19-.14.33Z"/>
        </g>
        <g>
          <path class="cls-2" d="M22.38,9.4s.02,0,.03.02c.08.12.16.22.25.33.09.03.11.08.07.16.12-.01.13.09.14.2.12-.17.24-.22.37-.14,0-.11.09-.15.2-.18.08,0,.15-.03.2-.06.03-.02.05-.03.08-.05.06-.04.1,0,.08.04-.12.2-.25.39-.37.59,0,.04,0,.07-.04.09-.02.06-.04.12-.06.18,0,.02,0,.03.01.05.1-.05.2-.05.3-.06.08,0,.13-.02.17-.06.03-.03.04-.01.04.04,0,.24-.08.46-.28.68.11,0,.21,0,.32.01.04,0,.04.02.03.05-.06.14-.16.26-.38.35.1.05.15.13.16.24,0,.1.03.17.09.21.03.01.04.03.01.05-.12.08-.26.09-.41.05.07.12.1.25.09.39-.1.03-.19,0-.28-.03.01.03.02.08.02.14,0,.05.02.11.05.16.01.02.03.04,0,.05-.15.04-.29.02-.42-.03,0,.11,0,.22-.04.33,0,.03-.03.04-.06,0-.07-.1-.15-.18-.24-.24-.02.04-.04.08-.07.1-.04.03-.07.08-.07.16,0,.01,0,.03-.02.04-.07,0-.23-.18-.27-.28-.09.05-.13.11-.2.21-.03.03-.05.01-.06-.01-.03-.11-.03-.22-.03-.33-.12.04-.27.06-.42.02-.03,0-.02-.03,0-.05.03-.05.05-.11.05-.17,0-.06,0-.1.02-.13-.09.03-.19.05-.28.02,0-.14.03-.27.1-.39-.15.04-.3.03-.41-.05-.03-.02-.02-.03.01-.05.06-.03.09-.1.1-.21.02-.11.07-.19.17-.24-.22-.09-.32-.21-.37-.35,0-.03,0-.04.04-.05.11,0,.22,0,.32,0-.2-.22-.27-.44-.27-.69,0-.05.02-.07.04-.04.03.04.08.06.16.07.1,0,.2,0,.3.06,0-.02,0-.04.02-.05-.02-.06-.05-.12-.07-.18-.04-.02-.05-.06-.04-.09-.12-.2-.23-.4-.35-.6-.03-.04.02-.07.08-.03.03.02.05.03.08.05.05.04.12.06.2.07.12.03.19.08.2.18.13-.08.26-.03.37.14,0-.11.02-.21.14-.2-.03-.08,0-.13.08-.16.09-.11.21-.21.3-.33.01-.02.02-.02.03-.02Z"/>
          <path class="cls-3" d="M22.36,10.22c-.03-.05-.07-.11-.11-.15-.04-.03-.07-.06-.12-.08.05-.04.1-.09.14-.15.03-.04.05-.09.07-.14.03.06.06.12.1.17.04.05.09.09.14.12-.05.03-.1.07-.14.11-.04.04-.06.08-.08.13h0Z"/>
          <path class="cls-3" d="M23.39,11.09l-.04-.09c.08-.04.29-.15.31-.27.01-.07.02-.11.02-.12,0-.01,0-.02.01-.09l.09.02c0,.05,0,.06,0,.06,0,.02,0,.03-.02.15-.04.19-.33.33-.36.34Z"/>
          <path class="cls-3" d="M21.32,11.03s-.34-.12-.38-.31c-.02-.07-.01-.1,0-.13,0-.02,0-.03,0-.08l.09-.03c.02.06.02.09,0,.12,0,.02,0,.04,0,.1.03.12.24.22.33.25l-.03.09Z"/>
          <g>
            <path class="cls-3" d="M22.65,11.71v-.06c-.01-.06.01-.12.04-.17l-.02-.02.05-.03c.08-.04.15-.07.21-.09.07-.03.15-.04.21-.04h.06s0,.05,0,.05c0,.04-.01.06-.02.09-.02.04-.04.07-.07.1-.03.02-.06.04-.1.06-.04.02-.09.04-.15.05h0s0,0,0,0c-.03,0-.05.01-.08.02-.02,0-.04.01-.06.02l-.06.02ZM22.78,11.5h0s-.02.05-.03.08c.03,0,.05-.02.08-.02h0c.05-.01.1-.03.13-.04.03-.02.06-.03.08-.05.02-.02.03-.04.04-.06,0,0,0,0,0-.01-.04,0-.08.02-.13.03-.06.02-.12.04-.18.08Z"/>
            <path class="cls-3" d="M22.1,11.71l-.06-.02s-.04,0-.06-.02c-.03,0-.05-.01-.08-.01h0s0,0,0,0c-.06,0-.11-.02-.16-.04-.04-.02-.08-.03-.11-.05-.03-.02-.05-.05-.07-.09-.01-.03-.02-.05-.03-.09v-.05s.04,0,.04,0c.07,0,.14,0,.22.02.07.02.14.04.22.08l.06.03-.02.02c.03.05.06.11.05.17v.06ZM21.92,11.57s.05,0,.08.02c0-.03-.02-.05-.04-.07h0c-.07-.03-.13-.05-.19-.07-.04,0-.09-.02-.13-.02,0,0,0,0,0,.01.01.03.03.05.04.06.02.02.05.03.08.04.04.01.09.02.14.03h0Z"/>
            <path class="cls-3" d="M22.36,12.36l-.4-.37.09-.02c.24-.05.45-.03.5-.02,0-.02,0-.04-.02-.06-.04-.16-.12-.43-.05-.62h0s0-.02,0-.02c.02-.02.41-.34.68-.16l-.05.08c-.17-.11-.45.06-.56.15-.05.16.02.41.05.55.03.1.03.12.02.15-.07.12-.25.3-.25.31l-.03.03ZM22.16,12.04l.2.19s.11-.12.17-.19c-.06,0-.2-.01-.36,0Z"/>
            <path class="cls-3" d="M22.07,12.6c-.1,0-.18-.04-.29-.13l.06-.07c.13.12.19.12.33.1.1-.02.14-.19.15-.25h.09s-.03.31-.22.35c-.05,0-.09.01-.12.01Z"/>
            <path class="cls-3" d="M22.63,12.59s-.03,0-.04,0c-.19-.02-.24-.3-.25-.31l.09-.02c.01.06.07.23.17.24.09,0,.14-.03.2-.08.03-.02.05-.04.09-.06l.05.08s-.05.04-.07.06c-.06.05-.12.1-.23.1Z"/>
            <path class="cls-3" d="M22.36,12.85c-.08,0-.19-.02-.29-.11l.06-.07c.13.11.28.08.35.07.1-.02.18-.17.2-.22l.09.04s-.11.24-.26.28c-.03,0-.08.02-.15.02Z"/>
            <path class="cls-3" d="M22.13,11.36c-.08-.05-.37-.2-.46-.21-.08-.02-.1-.02-.18.03l-.05-.08c.1-.06.14-.07.25-.05.11.03.42.19.48.22l-.05.08Z"/>
          </g>
          <path class="cls-3" d="M23.28,10.76h0c-.11,0-.21-.02-.29-.02-.24-.02-.42-.04-.64-.03-.34.01-.61.04-.92.1-.04,0-.08-.02-.08-.06,0-.04.02-.08.06-.08.31-.06.59-.09.94-.1.23,0,.42,0,.66.03.09,0,.18.02.29.03.04,0,.07.04.06.08,0,.04-.03.06-.07.06Z"/>
          <path class="cls-3" d="M23.44,10.44h0c-.12,0-.23-.02-.33-.03-.28-.03-.47-.04-.73-.04-.39,0-.7.03-1.05.08-.03,0-.05-.01-.05-.04s.02-.05.04-.05c.35-.05.67-.07,1.07-.08.26,0,.48.01.74.04.1,0,.21.02.33.03.03,0,.04.03.04.05,0,.02-.02.04-.04.04Z"/>
          <path class="cls-3" d="M21.38,10.73s-.14-.23-.19-.36l.09-.04c.05.13.18.34.19.35l-.08.05Z"/>
          <path class="cls-3" d="M23.32,10.71l-.09-.03c.04-.15.17-.34.18-.35l.08.05s-.12.18-.16.32Z"/>
        </g>
      </g>
      <g>
        <path class="cls-3" d="M51.63,27.24v-.5c.19-.05.39-.08.58-.1l-2.27-2.54v2.52c.21.02.48.06.7.12v.5h-2.35v-.49c.24-.06.53-.11.81-.13v-5.02c-.28-.02-.57-.06-.81-.13v-.49h2.35v.5c-.21.06-.48.1-.7.12v2.38l2.23-2.39c-.21-.02-.45-.06-.64-.11v-.5h2.33v.5c-.2.05-.44.09-.65.11l-2.3,2.4,2.44,2.63c.21.02.45.06.65.11v.5h-2.37Z"/>
        <path class="cls-3" d="M57.09,27.33c-1.88,0-2.79-1.25-2.79-3.15,0-2.09,1.34-3.29,2.97-3.29s2.79,1.1,2.79,3.15-1.33,3.29-2.97,3.29ZM57.18,21.64c-1.04,0-1.97.84-1.97,2.42,0,1.49.63,2.51,1.96,2.51,1.02,0,1.98-.82,1.98-2.43s-.72-2.5-1.97-2.5Z"/>
        <path class="cls-3" d="M66.52,21.61v5.63h-1.11l-2.42-3.88c-.28-.46-.51-.89-.71-1.3.06,1.08.05,2.76.05,4.54.25.02.52.07.74.13v.5h-2.37v-.49c.24-.06.53-.12.81-.14v-5.01c-.28-.02-.56-.06-.81-.13v-.49h1.93l2.39,3.84c.27.44.49.85.73,1.3-.06-1.05-.06-2.72-.06-4.51-.25-.02-.5-.07-.72-.13v-.5h2.19v.5c-.2.06-.42.1-.64.13Z"/>
        <path class="cls-3" d="M67.83,27.24v-.63l2.69-4.17c.18-.27.33-.5.52-.75-.3,0-.72.02-1.27.02h-1.13c-.02.22-.06.49-.11.8h-.61v-1.52h4.09v.65l-2.84,4.34c-.12.19-.23.36-.36.55.19-.02.71-.02,1.39-.02h1.11c.03-.24.06-.51.12-.82h.59v1.57h-4.19Z"/>
        <path class="cls-3" d="M78.16,21.6v3.26c0,1.64-.85,2.47-2.49,2.47-1.96,0-2.34-1.09-2.34-2.2v-3.53c-.22-.03-.45-.06-.64-.12v-.5h2.22v.5c-.22.06-.49.1-.74.12v3.47c0,.86.29,1.56,1.56,1.56,1.08,0,1.6-.46,1.6-1.71v-3.31c-.25-.02-.51-.06-.74-.12v-.5h2.21v.5c-.21.06-.42.09-.64.12Z"/>
        <path class="cls-3" d="M79.47,27.24v-.49c.24-.06.53-.11.81-.13v-5.02c-.28-.02-.57-.06-.81-.13v-.49h2.46v.49c-.24.06-.53.11-.81.13v4.94h1.6c.03-.24.08-.55.14-.84h.58v1.54h-3.98Z"/>
        <path class="cls-3" d="M87.68,27.24v-.49c.22-.05.49-.1.73-.12l-.36-1h-2.62l-.36,1c.24.02.51.06.73.12v.49h-2.17v-.5c.17-.04.4-.09.57-.1l2.08-5.66h1l2.09,5.66c.17,0,.4.06.57.1v.5h-2.24ZM87.02,22.77c-.12-.31-.21-.61-.28-.94h-.02c-.07.31-.17.63-.29.95l-.79,2.17h2.18l-.81-2.18Z"/>
        <path class="cls-3" d="M93.71,22.54c-.05-.36-.11-.63-.13-.86h-1.29v4.94c.28.02.57.06.81.13v.49h-2.46v-.49c.24-.06.53-.11.8-.13v-4.94h-1.29c-.02.23-.06.5-.13.86h-.58v-1.56h4.85v1.56h-.59Z"/>
        <path class="cls-3" d="M51.91,38.36l-1.82-2.81h-.16v2.19c.23.02.48.06.7.12v.5h-2.35v-.49c.24-.06.53-.11.81-.13v-5.02c-.28-.02-.57-.06-.81-.13v-.49h.72c.24,0,.89-.04,1.65-.04,1.23,0,2.12.44,2.12,1.63,0,1.01-.77,1.63-1.79,1.74.14.18.29.37.41.56l1.18,1.72c.21.03.46.07.71.12v.51h-1.38ZM50.51,32.76c-.22,0-.4,0-.57.02v2.13c.1,0,.29.02.54.02.9,0,1.42-.46,1.42-1.12,0-.75-.48-1.05-1.38-1.05Z"/>
        <path class="cls-3" d="M53.75,38.36v-.49c.24-.06.53-.11.81-.13v-5.02c-.28-.02-.57-.06-.81-.13v-.49h4.04v1.45h-.59c-.05-.29-.1-.57-.12-.78h-1.68v2.06h1.33c.04-.23.07-.44.13-.64h.52v1.9h-.52c-.06-.19-.1-.43-.13-.64h-1.33v2.23h1.69c.03-.24.07-.52.13-.8h.59v1.48h-4.06Z"/>
        <path class="cls-3" d="M60.83,35.99c-.17,0-.34,0-.51-.02v1.77c.28.02.56.06.81.13v.49h-2.46v-.49c.24-.06.53-.11.81-.13v-5.02c-.28-.02-.57-.06-.81-.13v-.49h.69c.3,0,1.03-.04,1.65-.04,1.45,0,2.23.72,2.23,1.84,0,1.22-1,2.09-2.41,2.09ZM60.92,32.77c-.23,0-.42,0-.6,0v2.47c.16.03.33.04.51.04.94,0,1.53-.51,1.53-1.3s-.46-1.21-1.44-1.21Z"/>
        <path class="cls-3" d="M69.15,32.73v3.25c0,1.64-.85,2.47-2.49,2.47-1.96,0-2.35-1.08-2.35-2.2v-3.53c-.22-.03-.45-.06-.64-.12v-.5h2.22v.5c-.22.05-.49.1-.74.12v3.47c0,.86.3,1.56,1.56,1.56,1.08,0,1.61-.45,1.61-1.72v-3.31c-.25-.02-.51-.06-.74-.12v-.5h2.21v.5c-.2.05-.42.09-.64.12Z"/>
        <path class="cls-3" d="M72.87,38.39c-.37,0-.99-.03-1.59-.03h-.81v-.49c.24-.06.53-.11.81-.13v-5.02c-.28-.02-.57-.06-.81-.13v-.49h.79c.45,0,1.11-.03,1.86-.03,1.36,0,2.03.56,2.03,1.5,0,.66-.45,1.24-1.12,1.45v.02c.87.15,1.26.79,1.26,1.44,0,.75-.46,1.9-2.42,1.9ZM72.97,32.76c-.3,0-.59,0-.85.02v2.02c.17,0,.36,0,.57,0,1.03,0,1.57-.41,1.57-1.1,0-.55-.29-.95-1.29-.95ZM72.7,35.45c-.1,0-.44,0-.58,0v2.19c.17.03.43.05.79.05,1.02,0,1.47-.49,1.47-1.18,0-.8-.72-1.07-1.69-1.07Z"/>
        <path class="cls-3" d="M76.07,38.36v-.49c.24-.06.53-.11.81-.13v-5.02c-.28-.02-.56-.06-.81-.13v-.49h2.46v.49c-.24.06-.53.11-.81.13v4.94h1.6c.03-.24.08-.55.14-.84h.58v1.54h-3.98Z"/>
        <path class="cls-3" d="M80.43,38.36v-.49c.24-.06.53-.11.81-.13v-5.02c-.28-.02-.56-.06-.81-.13v-.49h2.46v.49c-.24.06-.53.11-.8.13v5.02c.28.02.57.06.8.13v.49h-2.46Z"/>
        <path class="cls-3" d="M86.91,38.36v-.5c.18-.05.39-.08.58-.1l-2.27-2.54v2.52c.21.02.48.06.7.12v.5h-2.35v-.49c.24-.06.53-.11.81-.13v-5.02c-.28-.02-.57-.06-.81-.13v-.49h2.35v.5c-.21.05-.48.1-.7.12v2.38l2.23-2.39c-.2-.02-.44-.05-.64-.11v-.5h2.33v.5c-.19.04-.44.09-.65.11l-2.3,2.4,2.44,2.63c.21.02.46.06.65.11v.5h-2.37Z"/>
        <path class="cls-3" d="M89.75,38.36v-.49c.24-.06.53-.11.81-.13v-5.02c-.28-.02-.57-.06-.81-.13v-.49h4.04v1.45h-.59c-.06-.29-.1-.57-.12-.78h-1.68v2.06h1.33c.04-.23.07-.44.13-.64h.52v1.9h-.52c-.05-.19-.1-.43-.13-.64h-1.33v2.23h1.69c.03-.24.07-.52.13-.8h.59v1.48h-4.06Z"/>
        <path class="cls-3" d="M52.39,49.49v-.5c.22-.06.49-.1.74-.12v-2.26h-3.2v2.26c.26.02.52.06.75.12v.5h-2.4v-.49c.24-.07.53-.11.81-.13v-5.02c-.28-.02-.57-.06-.81-.13v-.49h2.4v.5c-.23.06-.49.1-.75.12v2.03h3.2v-2.03c-.25-.02-.52-.06-.74-.12v-.5h2.39v.49c-.24.06-.53.11-.81.13v5.02c.28.02.57.06.81.13v.49h-2.39Z"/>
        <path class="cls-3" d="M59.1,49.49l-1.82-2.81h-.16v2.19c.23.02.48.06.7.12v.5h-2.35v-.49c.24-.07.53-.11.81-.13v-5.02c-.28-.02-.56-.06-.81-.13v-.49h.72c.24,0,.89-.04,1.65-.04,1.23,0,2.12.44,2.12,1.63,0,1.01-.77,1.63-1.79,1.74.14.18.29.37.41.57l1.18,1.72c.21.03.46.06.71.12v.51h-1.38ZM57.7,43.89c-.22,0-.4,0-.57.02v2.13c.1,0,.29.02.54.02.9,0,1.42-.45,1.42-1.12,0-.75-.48-1.05-1.38-1.05Z"/>
        <path class="cls-3" d="M66.13,43.83l-2.07,5.66h-.96l-2.01-5.66c-.18,0-.41-.05-.57-.1v-.5h2.23v.49c-.21.05-.48.1-.73.12l1.16,3.41c.13.36.29.83.42,1.3h0c.11-.45.25-.86.43-1.36l1.2-3.35c-.25-.02-.51-.06-.73-.12v-.49h2.17v.5c-.15.05-.39.09-.56.1Z"/>
        <path class="cls-3" d="M70.14,49.49v-.49c.22-.06.49-.1.73-.12l-.36-1h-2.62l-.36,1c.24.02.51.06.73.12v.49h-2.17v-.5c.17-.04.4-.09.57-.1l2.07-5.65h1l2.09,5.65c.17,0,.4.06.56.1v.5h-2.24ZM69.48,45.02c-.12-.31-.2-.61-.28-.94h-.02c-.07.3-.17.63-.29.95l-.79,2.17h2.18l-.81-2.18Z"/>
        <path class="cls-3" d="M76.17,44.79c-.06-.36-.11-.63-.13-.86h-1.29v4.94c.28.02.57.06.81.13v.49h-2.46v-.49c.24-.07.53-.11.81-.13v-4.94h-1.29c-.02.23-.06.5-.13.86h-.58v-1.56h4.85v1.56h-.58Z"/>
        <path class="cls-3" d="M78.83,49.57c-.48,0-.95-.06-1.34-.16v-1.48h.61c.05.3.09.58.12.82.2.04.44.08.65.08.76,0,1.38-.31,1.38-1.08,0-1.41-2.85-.84-2.85-2.85,0-1.03.82-1.77,2.21-1.77.44,0,.8.05,1.21.12v1.44h-.61c-.06-.3-.09-.57-.11-.81-.13-.03-.34-.04-.52-.04-.85,0-1.29.39-1.29.97,0,1.35,2.86.85,2.86,2.82,0,1.12-.88,1.93-2.32,1.93Z"/>
        <path class="cls-3" d="M85.21,49.49v-.5c.19-.05.39-.08.58-.1l-2.27-2.54v2.52c.21.02.48.06.7.12v.5h-2.35v-.49c.24-.07.53-.11.81-.13v-5.02c-.28-.02-.57-.06-.81-.13v-.49h2.35v.5c-.21.06-.48.1-.7.12v2.38l2.23-2.39c-.21-.02-.45-.05-.64-.11v-.5h2.33v.5c-.2.05-.44.09-.65.11l-2.3,2.4,2.44,2.63c.21.02.45.06.65.11v.5h-2.37Z"/>
        <path class="cls-3" d="M88.05,49.49v-.49c.24-.07.53-.11.8-.13v-5.02c-.28-.02-.56-.06-.8-.13v-.49h4.04v1.45h-.6c-.05-.29-.1-.57-.12-.78h-1.68v2.06h1.34c.04-.23.07-.45.13-.64h.52v1.9h-.52c-.05-.2-.1-.43-.13-.64h-1.34v2.22h1.69c.03-.24.07-.52.13-.8h.59v1.48h-4.06Z"/>
      </g>
    </g>
  </g>
</svg>