<?xml version="1.0" encoding="UTF-8"?>
<svg id="Layer_2" data-name="Layer 2" xmlns="http://www.w3.org/2000/svg" viewBox="0 0 99.64 30.66">
  <defs>
    <style>
      .cls-1 {
        fill: #e5e5e5;
      }

      .cls-2 {
        fill: #96999c;
      }
    </style>
  </defs>
  <g id="Layer_1-2" data-name="Layer 1">
    <g>
      <path class="cls-2" d="M42.88,1.12c7.83,0,14.21,6.38,14.21,14.21s-6.37,14.21-14.21,14.21c-2,0-3.94-.41-5.76-1.22l-.04-.03,6.24-13.12.47-.98v8.17l.95.14c.32.05.63.08.91.11.46.03.87.05,1.22.05.39,0,.64-.02,1.06-.05.27-.02.56-.06.87-.1l.95-.15V5.34l-.99-.12-.21-.02c-.7-.08-1.31-.15-2.13-.22-1.1-.09-2.14-.13-3.11-.13-2.67,0-4.72.52-6.09,1.55-1.39,1.05-2.1,2.53-2.1,4.41,0,.7.08,1.32.24,1.86.16.52.36.98.59,1.36.23.38.48.7.75.94.14.12.26.23.37.33l-4.81,9.49c-2.33-2.61-3.61-5.94-3.61-9.45,0-7.84,6.37-14.21,14.21-14.21M43.02,9.89c.06,0,.11,0,.17,0h.15c.17.01.32.02.46.03v4.13l-1.09-.41c-.64-.24-1.06-.52-1.23-.82-.36-.64-.45-1.11-.41-1.32.15-.82.35-1.03.61-1.23.35-.27.78-.39,1.35-.39M42.88,0c-8.45,0-15.33,6.88-15.33,15.33,0,3.98,1.52,7.75,4.28,10.62l.73.76,5.92-11.69-.45-.38c-.14-.13-.33-.29-.56-.5-.18-.17-.36-.4-.54-.69-.18-.3-.34-.67-.47-1.1-.13-.43-.2-.94-.2-1.53,0-1.53.54-2.68,1.65-3.52,1.17-.88,2.99-1.32,5.41-1.32.94,0,1.96.04,3.03.13.87.07,1.52.15,2.29.24v15.06c-.29.04-.56.07-.79.09-.41.03-.63.04-.97.04-.32,0-.71-.02-1.14-.04-.25-.02-.53-.05-.82-.09v-12.42l-.6-.12c-.27-.05-.62-.06-1.09-.08-.07,0-.14,0-.21,0-.67,0-1.38.13-2.03.63-.54.41-.84.9-1.03,1.91-.12.68.2,1.48.54,2.08.33.57.97.98,1.81,1.3l-6.62,13.91.83.68c2.01.92,4.15,1.38,6.36,1.38,8.45,0,15.33-6.88,15.33-15.33S51.33,0,42.88,0h0Z"/>
      <path class="cls-1" d="M24.78,6.24c-1.21,0-2.28.18-3.18.54-.87.35-1.61.85-2.2,1.48-.59.65-1.05,1.44-1.35,2.35-.31.95-.47,2.02-.47,3.19s.16,2.29.48,3.26c.31.94.76,1.74,1.35,2.4.59.65,1.33,1.16,2.2,1.51.9.37,1.96.55,3.17.55s2.31-.18,3.21-.55c.87-.35,1.62-.86,2.2-1.51.59-.66,1.05-1.46,1.36-2.4.31-.97.47-2.07.47-3.26s-.16-2.24-.47-3.19c-.3-.91-.76-1.71-1.35-2.35-.58-.64-1.32-1.14-2.2-1.48-.9-.36-1.98-.54-3.21-.54h0Z"/>
      <path class="cls-1" d="M60.66,6.24c-1.21,0-2.28.18-3.19.54-.87.35-1.61.85-2.2,1.48-.59.65-1.05,1.44-1.35,2.35-.32.95-.48,2.02-.48,3.19s.16,2.29.48,3.26c.3.94.76,1.74,1.35,2.4.59.65,1.33,1.16,2.2,1.51.9.37,1.97.55,3.18.55s2.31-.18,3.21-.55c.87-.35,1.61-.86,2.2-1.51.59-.66,1.05-1.46,1.36-2.4.32-.97.48-2.07.48-3.26s-.16-2.24-.47-3.19c-.3-.91-.76-1.71-1.36-2.35-.59-.64-1.32-1.14-2.2-1.48-.9-.36-1.98-.54-3.21-.54h0Z"/>
      <g>
        <path class="cls-2" d="M24.78,22.56c-1.36,0-2.56-.21-3.6-.63-1.03-.42-1.91-1.02-2.61-1.8-.7-.77-1.23-1.72-1.59-2.8-.35-1.08-.53-2.3-.53-3.61s.18-2.48.53-3.54c.36-1.07.89-1.99,1.59-2.76.7-.76,1.58-1.36,2.61-1.77,1.04-.41,2.25-.62,3.6-.62s2.59.21,3.63.62c1.04.41,1.91,1,2.61,1.77.7.76,1.23,1.69,1.59,2.76.35,1.06.54,2.26.54,3.54s-.18,2.52-.54,3.61c-.36,1.09-.89,2.03-1.59,2.8s-1.58,1.38-2.61,1.8c-1.03.42-2.25.63-3.63.63h0ZM24.78,6.16c-1.21,0-2.28.18-3.18.54-.87.34-1.61.84-2.2,1.48-.59.65-1.05,1.44-1.35,2.35-.31.95-.47,2.02-.47,3.19s.16,2.29.48,3.26c.31.94.76,1.74,1.35,2.4.59.65,1.33,1.16,2.2,1.51.9.36,1.96.55,3.17.55s2.31-.19,3.21-.55c.87-.36,1.62-.86,2.2-1.51.59-.66,1.05-1.46,1.36-2.4.31-.97.47-2.07.47-3.26s-.16-2.24-.47-3.19c-.3-.91-.76-1.7-1.35-2.35-.58-.64-1.32-1.14-2.2-1.48-.9-.36-1.98-.54-3.21-.54h0ZM24.78,18.54c-1.13,0-2.02-.47-2.58-1.37-.51-.83-.76-1.96-.76-3.46s.25-2.61.76-3.43c.55-.89,1.44-1.36,2.58-1.36s2.03.47,2.59,1.36c.52.82.78,1.97.78,3.43s-.25,2.63-.78,3.46c-.56.89-1.46,1.36-2.59,1.36h0ZM24.78,10.05c-.75,0-1.27.27-1.62.84-.39.64-.59,1.59-.59,2.84s.2,2.23.59,2.87c.35.57.87.83,1.62.83s1.28-.27,1.64-.84c.4-.63.61-1.6.61-2.86s-.2-2.2-.61-2.83c-.36-.57-.88-.84-1.64-.84h0Z"/>
        <path class="cls-2" d="M60.73,22.56c-1.35,0-2.56-.21-3.59-.63-1.03-.42-1.91-1.02-2.61-1.8-.7-.77-1.23-1.72-1.59-2.8-.36-1.08-.54-2.3-.54-3.61s.18-2.48.54-3.54c.35-1.07.89-1.99,1.59-2.76.7-.76,1.58-1.36,2.61-1.77,1.04-.41,2.24-.62,3.59-.62s2.6.21,3.63.62c1.04.41,1.91,1,2.61,1.77.7.76,1.23,1.69,1.59,2.76.35,1.06.54,2.26.54,3.54s-.18,2.52-.54,3.61c-.36,1.09-.89,2.03-1.59,2.8-.7.78-1.58,1.38-2.61,1.8-1.03.42-2.25.63-3.63.63h0ZM60.73,6.16c-1.21,0-2.28.18-3.18.54-.88.34-1.61.84-2.2,1.48-.59.65-1.04,1.44-1.35,2.35-.32.95-.48,2.02-.48,3.19s.16,2.29.48,3.26c.31.94.76,1.74,1.35,2.4.59.65,1.33,1.16,2.2,1.51.9.36,1.96.55,3.17.55s2.31-.19,3.21-.55c.87-.36,1.61-.86,2.2-1.51.59-.66,1.05-1.46,1.36-2.4.32-.97.48-2.07.48-3.26s-.16-2.24-.47-3.19c-.3-.91-.76-1.7-1.35-2.35-.58-.64-1.32-1.14-2.2-1.48-.9-.36-1.98-.54-3.22-.54h0ZM60.73,18.54c-1.13,0-2.02-.47-2.57-1.37-.51-.83-.76-1.96-.76-3.46s.26-2.61.76-3.43c.55-.89,1.44-1.36,2.57-1.36s2.03.47,2.59,1.36c.52.82.78,1.97.78,3.43s-.25,2.63-.78,3.46c-.56.89-1.46,1.36-2.59,1.36h0ZM60.73,10.05c-.75,0-1.27.27-1.62.84-.39.64-.6,1.59-.6,2.84s.2,2.23.6,2.87c.35.57.87.83,1.62.83s1.28-.27,1.64-.84c.4-.63.61-1.6.61-2.86s-.2-2.2-.61-2.83c-.36-.57-.88-.84-1.64-.84h0Z"/>
        <path class="cls-2" d="M75.8,22.37c-.46,0-.89-.02-1.33-.05-.31-.02-.62-.06-.9-.12l-.34-.07-4.26-16.71.65-.06c.19-.02.42-.04.68-.05,1.08-.08,2.42-.1,3.67,0,.29.02.5.04.65.06l.43.05,1.32,8.36c.78-2.59,1.97-6.52,2.22-7.38l.3-1.02.36-.04c.16-.02.38-.04.72-.07.53-.04,1.08-.06,1.65-.06.72,0,1.39.02,1.99.06.22.02.42.03.58.05l.74.06-6.4,16.75-.3.06c-.36.07-.73.12-1.09.14-.44.03-.89.05-1.34.05h0ZM74.15,21.16c.13.02.27.03.4.04.82.06,1.67.06,2.51,0,.22-.02.43-.04.65-.07l5.65-14.77c-.53-.04-1.11-.05-1.73-.05-.54,0-1.06.02-1.55.06-.12,0-.22.02-.31.03l-.09.3c-.38,1.3-2.9,9.64-2.93,9.73l-1.09-.07-1.57-9.93c-.06,0-.13-.01-.19-.02-1.19-.09-2.48-.07-3.5,0l3.76,14.75h0Z"/>
        <path class="cls-2" d="M84.99,22.34c-.62,0-1.27-.02-1.88-.06-.21-.02-.39-.03-.55-.04l-.73-.06,6.21-16.66.29-.07c.29-.06.6-.11.93-.13.86-.06,1.77-.06,2.66,0,.35.03.71.07,1.06.14l.3.06,6.34,16.66-.74.06c-.16.02-.34.03-.55.04-.6.04-1.27.06-1.98.06-.56,0-1.12-.02-1.65-.06-.32-.03-.54-.05-.7-.07l-.36-.05-.1-.35c-.31-1.06-1.9-5.8-2.75-8.3l-2.95,8.66-.35.04c-.16.02-.39.04-.73.07-.56.04-1.16.06-1.79.06h0ZM83.4,21.17c1.11.07,2.29.07,3.29-.01.13,0,.24-.02.33-.03l3.79-11.1.53,1.56c.11.32,2.52,7.43,3.18,9.54.09,0,.18.02.29.03,1.07.09,2.27.07,3.25.01l-5.59-14.67c-.21-.03-.42-.06-.62-.07-.84-.06-1.69-.06-2.51,0-.16,0-.32.03-.47.05l-5.47,14.69h0Z"/>
        <path class="cls-2" d="M3.3,22.31c-.44,0-.91-.02-1.39-.07-.49-.04-.98-.13-1.48-.24l-.44-.1V5.42l.46-.09c.6-.11,1.12-.19,1.58-.22.45-.03.88-.05,1.27-.05.26,0,.36,0,.56.03.08,0,.17.01.31.03.47.03.98.1,1.58.22l.45.09v5.86L13.33,1.01l.2-.05c.36-.09.83-.16,1.41-.21.54-.04,1.12-.07,1.71-.07.36,0,.53.01.87.04l.32.02c.6.04,1.11.11,1.53.21l.83.18-8.51,11.96,5.54,8.73-.76.19c-.38.09-.87.16-1.47.21l-.23.02c-.41.03-.63.05-1.13.05-.42,0-1.31-.02-1.9-.06-.58-.04-1.08-.11-1.5-.21l-.24-.05-2.19-3.78-2.62,4.04-.27.02c-.49.04-1.17.07-1.6.07h0ZM1.12,21.01c.3.06.6.1.9.13.44.04.88.06,1.29.06.33,0,.81-.02,1.22-.04l3.31-5.12,2.86,4.92c.32.06.69.1,1.11.13.54.04,1.4.06,1.82.06.46,0,.65-.01,1.05-.04l.23-.02c.17-.01.34-.03.49-.04l-5.07-8L18.25,1.91c-.16-.02-.33-.03-.51-.05l-.33-.03c-.33-.03-.46-.04-.78-.04-.55,0-1.1.02-1.62.06-.41.03-.75.08-1.02.13L5.08,14.87V6.35c-.37-.06-.7-.1-1-.12-.14,0-.24-.02-.32-.03-.16-.02-.24-.02-.46-.02-.36,0-.77.02-1.19.05-.3.02-.63.06-1,.12v14.65h0Z"/>
      </g>
    </g>
  </g>
</svg>