<?xml version="1.0" encoding="UTF-8"?>
<svg id="Layer_2" data-name="Layer 2" xmlns="http://www.w3.org/2000/svg" viewBox="0 0 47.91 37.65">
  <defs>
    <style>
      .cls-1 {
        fill: #bababa;
      }

      .cls-2 {
        fill: #737373;
      }
    </style>
  </defs>
  <g id="Layer_1-2" data-name="Layer 1">
    <g>
      <g>
        <path class="cls-1" d="M26.87,37.65c-5.79,0-11.59-2.1-16.35-5.9-.9-.72-1.04-2.04-.33-2.94.4-.5,1-.79,1.63-.79.47,0,.94.16,1.3.46,1.45,1.16,6.73,4.95,13.88,4.95,5.29,0,10.15-2.09,14.45-6.21.8-.78,2.19-.75,2.96.06.39.4.59.93.58,1.49-.01.56-.24,1.08-.64,1.46-5.06,4.85-11.11,7.42-17.49,7.42Z"/>
        <path class="cls-1" d="M44.88,6.14c-.83,0-1.55-.28-2.13-.83-.6-.56-.9-1.31-.9-2.24s.3-1.68.9-2.24c.58-.55,1.3-.83,2.13-.83s1.55.28,2.13.83c.6.56.9,1.31.9,2.24s-.3,1.68-.9,2.24c-.59.55-1.3.83-2.13.83Z"/>
      </g>
      <g>
        <path class="cls-2" d="M43.96,14.94c0,1.34-.22,2.54-.66,3.62s-1.05,2-1.84,2.78c-.79.77-1.73,1.37-2.83,1.79-1.1.42-2.29.63-3.58.63s-2.48-.21-3.57-.63c-1.09-.42-2.04-1.02-2.83-1.79-.79-.78-1.4-1.7-1.84-2.78s-.66-2.28-.66-3.62.22-2.51.66-3.6c.44-1.08,1.05-2.02,1.84-2.79.79-.78,1.73-1.37,2.83-1.79,1.1-.42,2.29-.63,3.57-.63s2.48.21,3.58.63c1.09.42,2.04,1.02,2.83,1.79.79.78,1.4,1.71,1.84,2.79.44,1.09.66,2.29.66,3.6ZM40.43,14.94c0-1.89-.48-3.39-1.44-4.5-.96-1.11-2.27-1.66-3.92-1.66s-2.96.55-3.92,1.66c-.96,1.11-1.44,2.61-1.44,4.5s.48,3.4,1.44,4.5c.96,1.11,2.27,1.66,3.92,1.66s2.96-.55,3.92-1.66c.96-1.11,1.44-2.61,1.44-4.5Z"/>
        <path class="cls-2" d="M13.34,23.55h-3.43v-8.99c0-.97-.05-1.82-.16-2.52-.1-.68-.29-1.25-.54-1.7-.24-.43-.58-.76-1-.96-.62-.3-1.51-.35-2.62-.29-.34.02-.67.05-.98.08-.31.03-.59.07-.84.11-.14.02-.25.04-.34.06v14.21H0V6.86l.16-.04c.69-.17,1.61-.36,2.74-.55,1.14-.2,2.47-.29,3.96-.29,1.1,0,2.04.15,2.79.45.7.28,1.3.68,1.79,1.19.14-.1.33-.21.57-.35.33-.2.74-.39,1.23-.58.48-.19,1.02-.35,1.61-.49.6-.14,1.24-.22,1.92-.22,1.32,0,2.41.2,3.25.59.85.39,1.53.95,2.01,1.67.48.71.8,1.56.97,2.54.16.95.24,2.01.24,3.13v8.73l-3.43.9v-8.99c0-.98-.05-1.83-.14-2.52-.09-.68-.27-1.25-.52-1.7-.25-.43-.58-.76-1.01-.96-.43-.21-1-.32-1.7-.32-.98,0-1.79.13-2.42.39-.54.22-.94.43-1.17.6.15.53.27,1.12.35,1.74.09.68.13,1.39.13,2.13v9.64Z"/>
      </g>
    </g>
  </g>
</svg>