<?xml version="1.0" encoding="UTF-8"?>
<svg id="Layer_2" data-name="Layer 2" xmlns="http://www.w3.org/2000/svg" viewBox="0 0 382 195.07">
  <defs>
    <style>
      .cls-1 {
        fill: #ee3f34;
      }

      .cls-2 {
        fill: #0d57a4;
      }

      .cls-3 {
        fill: #a5a7aa;
      }
    </style>
  </defs>
  <g id="Layer_1-2" data-name="Layer 1">
    <g>
      <path class="cls-1" d="M220.22,195.07c-20.37,0-39.73-7.8-54.65-19.73-2.18-1.74-2.53-4.93-.79-7.11,1.75-2.18,4.93-2.53,7.11-.79,19.25,15.4,61.92,31.79,99.75-4.47,2.01-1.93,5.21-1.87,7.15.15,1.93,2.02,1.86,5.21-.15,7.15-18.38,17.61-38.86,24.8-58.41,24.8Z"/>
      <path class="cls-2" d="M47.13,119.18c0,3.66-.58,6.96-1.74,9.91-1.16,2.95-2.78,5.48-4.88,7.61-2.09,2.12-4.59,3.76-7.48,4.91-2.9,1.15-6.05,1.72-9.46,1.72s-6.57-.57-9.46-1.72c-2.9-1.15-5.39-2.79-7.48-4.91-2.09-2.12-3.72-4.66-4.88-7.61-1.16-2.95-1.74-6.25-1.74-9.91s.58-6.88,1.74-9.86c1.16-2.98,2.78-5.53,4.88-7.65,2.09-2.12,4.59-3.76,7.48-4.91,2.9-1.15,6.05-1.72,9.46-1.72s6.57.58,9.46,1.72c2.9,1.15,5.39,2.79,7.48,4.91,2.09,2.12,3.72,4.67,4.88,7.65,1.16,2.98,1.74,6.27,1.74,9.86ZM37.76,119.18c0-5.19-1.27-9.3-3.81-12.34-2.54-3.04-6-4.55-10.38-4.55s-7.84,1.52-10.38,4.55c-2.54,3.04-3.81,7.15-3.81,12.34s1.27,9.3,3.81,12.34c2.54,3.04,6,4.55,10.38,4.55s7.84-1.52,10.38-4.55c2.54-3.04,3.81-7.15,3.81-12.34ZM112.24,86.41c-1.47,0-2.73-.49-3.76-1.46-1.03-.97-1.55-2.29-1.55-3.94s.51-2.96,1.55-3.94c1.03-.97,2.29-1.46,3.76-1.46s2.73.49,3.76,1.46c1.03.97,1.55,2.28,1.55,3.94s-.52,2.96-1.55,3.94c-1.03.97-2.29,1.46-3.76,1.46ZM162.65,119.27c0-4.07.59-7.62,1.77-10.66,1.18-3.04,2.74-5.56,4.69-7.56,1.95-2,4.19-3.51,6.72-4.51,2.54-1,5.13-1.5,7.78-1.5,6.19,0,10.94,1.93,14.24,5.79,3.3,3.86,4.95,9.74,4.95,17.65v1.37c0,.56-.03,1.08-.09,1.55h-31.49c.35,4.78,1.74,8.4,4.16,10.88,2.42,2.47,6.19,3.71,11.32,3.71,2.89,0,5.32-.25,7.3-.75,1.97-.5,3.46-.99,4.47-1.46l1.15,6.9c-1,.53-2.76,1.09-5.26,1.68-2.51.59-5.35.88-8.54.88-4.01,0-7.47-.61-10.39-1.81-2.92-1.21-5.32-2.87-7.21-5-1.89-2.12-3.29-4.64-4.2-7.56-.92-2.92-1.37-6.12-1.37-9.6ZM194.23,114.75c.06-3.71-.87-6.77-2.79-9.15-1.92-2.39-4.55-3.58-7.92-3.58-1.89,0-3.55.37-5,1.11-1.45.74-2.67,1.7-3.67,2.88-1,1.18-1.78,2.54-2.34,4.07-.56,1.53-.93,3.09-1.11,4.69h22.82ZM228.46,143.06c-5.07-.12-8.67-1.21-10.79-3.27-2.12-2.06-3.18-5.28-3.18-9.64v-55.2l8.22,2.52v51.35c0,1.36.12,2.48.35,3.36.23.88.62,1.59,1.15,2.12.53.53,1.24.93,2.12,1.2.89.26,1.97.48,3.27.66l-1.15,6.9ZM246.65,86.39c-1.47,0-2.73-.49-3.76-1.46-1.03-.97-1.55-2.29-1.55-3.94s.51-2.96,1.55-3.94c1.03-.97,2.29-1.46,3.76-1.46s2.73.49,3.76,1.46c1.03.97,1.55,2.28,1.55,3.94s-.52,2.96-1.55,3.94c-1.03.97-2.29,1.46-3.76,1.46ZM152.7,135.05c-1.5.56-3.49.84-5.97.84-1.41,0-2.65-.18-3.72-.53-1.06-.35-1.94-.96-2.65-1.81-.71-.85-1.24-2.03-1.59-3.54-.35-1.5-.53-3.4-.53-5.7v-21.23h17.25l-3.07-6.9h-14.18v-14.24l-8.22,1.41v41.04c0,3.07.25,5.76.75,8.09.5,2.33,1.37,4.29,2.61,5.88,1.24,1.59,2.88,2.79,4.91,3.58,2.04.8,4.61,1.2,7.74,1.2,2.65,0,5.01-.31,7.08-.93,2.06-.62,4.78-1.48,5.61-1.89l-2.87-6.46c-.59.23-1.64.63-3.14,1.19ZM242.58,92.19v49.19c0,3.36-.61,5.91-1.81,7.65-1.21,1.74-3.23,2.61-6.06,2.61-.55,0-1.17-.07-1.8-.15l-2.85,6.43c.66.21,1.4.4,2.27.53,1.12.18,2.03.27,2.74.27,5.13,0,9.04-1.43,11.72-4.29,2.68-2.86,4.03-7.24,4.03-13.13v-46.13l-8.23-2.97ZM108.17,92.19v49.98h8.23v-47.01l-8.23-2.97ZM95.21,109.45c-.91-2.95-2.26-5.48-4.02-7.61-1.77-2.12-3.94-3.77-6.5-4.95-2.57-1.18-5.5-1.77-8.8-1.77-2.65,0-5,.35-7.03,1.06-2.03.71-3.55,1.38-4.55,2.03v-20.35l-8.08-2.92h-.15v65.9c1.89.53,4.3,1.06,7.25,1.59,2.95.53,6.34.79,10.17.79,3.54,0,6.72-.56,9.55-1.68,2.83-1.12,5.25-2.71,7.25-4.78,2-2.06,3.55-4.58,4.64-7.56,1.09-2.98,1.63-6.32,1.63-10.04s-.46-6.78-1.37-9.73ZM84.02,131.61c-2.65,2.92-6.19,4.38-10.62,4.38-2.24,0-4.11-.1-5.62-.31-1.5-.21-2.67-.43-3.49-.66v-29.1c1-.83,2.45-1.62,4.33-2.39,1.89-.77,3.95-1.15,6.19-1.15,2.36,0,4.38.43,6.06,1.28,1.68.86,3.05,2.04,4.11,3.54,1.06,1.5,1.83,3.29,2.3,5.35.47,2.06.71,4.28.71,6.63,0,5.37-1.33,9.51-3.98,12.43Z"/>
      <path class="cls-1" d="M175.44,42.75c0,3.66-.57,6.96-1.71,9.91-1.14,2.95-2.74,5.48-4.8,7.61-2.06,2.12-4.51,3.76-7.36,4.91-2.85,1.15-5.95,1.72-9.31,1.72s-6.46-.58-9.31-1.72c-2.85-1.15-5.31-2.79-7.36-4.91-2.06-2.12-3.66-4.66-4.79-7.61-1.14-2.95-1.71-6.25-1.71-9.91s.57-6.88,1.71-9.86c1.14-2.97,2.74-5.53,4.79-7.65,2.06-2.12,4.51-3.76,7.36-4.91,2.85-1.15,5.95-1.72,9.31-1.72s6.46.57,9.31,1.72c2.85,1.15,5.3,2.79,7.36,4.91,2.06,2.12,3.66,4.68,4.8,7.65,1.14,2.98,1.71,6.27,1.71,9.86ZM166.22,42.75c0-5.19-1.25-9.3-3.75-12.34-2.5-3.04-5.91-4.56-10.21-4.56s-7.71,1.52-10.21,4.56c-2.5,3.04-3.75,7.15-3.75,12.34s1.25,9.3,3.75,12.34c2.5,3.04,5.9,4.55,10.21,4.55s7.71-1.52,10.21-4.55c2.5-3.04,3.75-7.15,3.75-12.34ZM249.1,29.09c-.64-2.15-1.72-4.01-3.23-5.57-1.51-1.56-3.5-2.77-5.96-3.63-2.47-.85-5.5-1.28-9.1-1.28-3.14,0-6.06.22-8.76.66-.62.1-1.2.21-1.74.31l-3.11,7,.13.87c1.09-.41,2.74-.81,4.96-1.19,2.21-.38,4.79-.57,7.75-.57,2.31,0,4.19.31,5.63.93,1.44.62,2.58,1.45,3.41,2.48.83,1.03,1.41,2.21,1.73,3.54.32,1.33.48,2.67.48,4.03v2.3c-.26-.06-.71-.14-1.35-.26-.64-.12-1.4-.25-2.26-.4-.87-.15-1.78-.27-2.74-.35-.96-.09-1.89-.13-2.79-.13-2.82,0-5.52.27-8.08.8-2.57.53-4.81,1.36-6.74,2.47-1.92,1.12-3.45,2.6-4.57,4.42-1.12,1.83-1.69,4.01-1.69,6.54s.48,4.92,1.45,6.81c.96,1.89,2.31,3.41,4.04,4.55,1.73,1.15,3.78,1.99,6.16,2.52,2.37.53,4.97.8,7.79.8,1.99,0,3.99-.07,6.01-.22,2.02-.15,3.9-.31,5.63-.49,1.73-.18,3.29-.37,4.67-.57,1.38-.21,2.45-.37,3.22-.49v-28.74c0-2.59-.32-4.97-.96-7.12ZM241.31,59.2c-1.09.23-2.45.4-4.09.48-1.64.09-3.51.13-5.63.13-3.53,0-6.32-.58-8.37-1.72-2.05-1.15-3.08-3.2-3.08-6.15,0-1.59.42-2.88,1.25-3.85.83-.97,1.88-1.74,3.13-2.3,1.25-.56,2.63-.93,4.14-1.11,1.51-.18,2.93-.27,4.28-.27,2.05,0,3.8.1,5.24.31,1.44.21,2.49.46,3.13.75v13.71ZM193.84,10.79c1.47,0,2.73-.49,3.76-1.46,1.03-.97,1.55-2.29,1.55-3.94s-.52-2.96-1.55-3.94c-1.03-.97-2.29-1.46-3.76-1.46s-2.73.49-3.76,1.46c-1.03.97-1.55,2.29-1.55,3.94s.51,2.96,1.55,3.94c1.03.97,2.29,1.46,3.76,1.46ZM189.77,16.98v47.97c0,3.36-.61,5.91-1.81,7.65-1.21,1.74-3.23,2.61-6.06,2.61-.65,0-1.36-.06-2.12-.18-.77-.12-1.44-.26-2.04-.44l-1.06,6.72c.77.29,1.71.53,2.83.71,1.12.18,2.03.26,2.74.26,5.13,0,9.04-1.43,11.72-4.29,2.68-2.86,4.03-7.24,4.03-13.13V19.95l-8.23-2.97ZM110.21,34.7c.27,1.95.4,4.28.4,6.99v23.86l8.23-2.15v-23.48c0-3.07-.22-5.9-.66-8.49-.44-2.6-1.3-4.84-2.57-6.72-1.27-1.88-3.02-3.35-5.26-4.38-2.24-1.03-5.13-1.55-8.67-1.55-1.83,0-3.54.19-5.13.57-1.59.38-3.04.83-4.33,1.33-1.3.5-2.39,1.02-3.27,1.55-.88.53-1.53.94-1.95,1.24-1.36-1.53-3.04-2.7-5.04-3.49-2.01-.79-4.48-1.19-7.43-1.19-4.07,0-7.65.27-10.75.8-3.1.53-5.59,1.03-7.47,1.5v44.67h8.23V26.92c.24-.06.71-.15,1.42-.26.71-.12,1.49-.22,2.34-.31.85-.09,1.75-.16,2.7-.22.94-.06,1.83-.09,2.65-.09,1.95,0,3.55.31,4.82.93,1.27.62,2.27,1.58,3.01,2.88.74,1.3,1.25,2.92,1.55,4.87.29,1.95.44,4.28.44,6.99v24.06h8.23v-25.83c0-2-.12-3.92-.35-5.75-.24-1.83-.59-3.51-1.06-5.04.65-.59,1.87-1.25,3.67-1.99,1.8-.73,4.08-1.11,6.86-1.11,2,0,3.64.31,4.91.93,1.27.62,2.27,1.58,3.01,2.88.74,1.3,1.24,2.92,1.5,4.87Z"/>
      <path class="cls-3" d="M372.98,142.18c-.65-1.3-1.45-2.74-2.39-4.33-.94-1.59-1.98-3.23-3.1-4.91-1.12-1.68-2.27-3.35-3.45-5-1.18-1.65-2.33-3.21-3.45-4.69-1.12,1.47-2.27,3.05-3.45,4.73-1.18,1.68-2.31,3.36-3.41,5.04-1.09,1.68-2.11,3.32-3.05,4.91-.94,1.59-1.74,3.01-2.39,4.25h-8.49c2.06-4.01,4.53-8.09,7.39-12.25,2.86-4.16,5.71-8.12,8.54-11.89l-15.21-21.85h9.29l10.97,16.1,11.06-16.1h8.76l-14.86,21.32c2.83,3.83,5.74,7.89,8.71,12.16,2.98,4.28,5.5,8.45,7.56,12.52h-9.02ZM326.06,106.26c.73,1.3,1.24,2.92,1.5,4.87.26,1.95.4,4.28.4,6.99v24.06h.23l7.47-1.95.53-.13v-23.75c0-3.06-.22-5.89-.66-8.49-.44-2.59-1.3-4.83-2.57-6.72-1.27-1.89-3.02-3.35-5.26-4.38-2.24-1.03-5.13-1.55-8.67-1.55-1.83,0-3.54.19-5.13.57-1.59.38-3.04.83-4.33,1.33-1.3.5-2.39,1.02-3.27,1.55-.88.53-1.53.94-1.95,1.24-1.36-1.53-3.04-2.7-5.04-3.49-2.01-.79-4.48-1.19-7.43-1.19-4.07,0-7.65.26-10.75.8-3.1.53-5.59,1.03-7.47,1.5v44.67h8.23v-38.83c.24-.05.71-.14,1.42-.26.71-.12,1.49-.22,2.34-.31.85-.09,1.75-.16,2.7-.22.94-.06,1.83-.09,2.65-.09,1.95,0,3.55.31,4.82.93,1.27.62,2.27,1.58,3.01,2.87.74,1.3,1.25,2.92,1.55,4.87.3,1.95.44,4.28.44,6.99v24.06h8.23v-25.83c0-2-.12-3.92-.35-5.75-.24-1.83-.59-3.51-1.06-5.04.65-.59,1.87-1.25,3.67-1.99,1.8-.74,4.08-1.11,6.86-1.11,2,0,3.64.31,4.91.93,1.27.62,2.27,1.58,3.01,2.87Z"/>
    </g>
  </g>
</svg>